<mxfile host="Electron" modified="2023-09-20T11:38:26.996Z" agent="Mozilla/5.0 (Windows NT 10.0; Win64; x64) AppleWebKit/537.36 (KHTML, like Gecko) draw.io/21.6.8 Chrome/114.0.5735.289 Electron/25.5.0 Safari/537.36" etag="bHLmLfXyuWLZYBnFvjbd" version="21.6.8" type="device">
  <diagram name="第 1 页" id="Ysh0bYaYvzncVaAxSflE">
    <mxGraphModel dx="2222" dy="978" grid="1" gridSize="10" guides="1" tooltips="1" connect="1" arrows="1" fold="1" page="1" pageScale="1" pageWidth="827" pageHeight="1169" math="0" shadow="0">
      <root>
        <mxCell id="0" />
        <mxCell id="1" parent="0" />
        <mxCell id="LGfR2pY10DzcNVxrijDs-3" value="database" style="rounded=1;whiteSpace=wrap;html=1;sketch=1;hachureGap=4;jiggle=2;curveFitting=1;fontFamily=Architects Daughter;fontSource=https%3A%2F%2Ffonts.googleapis.com%2Fcss%3Ffamily%3DArchitects%2BDaughter;fontSize=20;" parent="1" vertex="1">
          <mxGeometry x="490" y="330" width="120" height="60" as="geometry" />
        </mxCell>
        <mxCell id="LGfR2pY10DzcNVxrijDs-4" value="用户问题" style="rounded=1;whiteSpace=wrap;html=1;sketch=1;hachureGap=4;jiggle=2;curveFitting=1;fontFamily=Architects Daughter;fontSource=https%3A%2F%2Ffonts.googleapis.com%2Fcss%3Ffamily%3DArchitects%2BDaughter;fontSize=20;" parent="1" vertex="1">
          <mxGeometry x="-100" y="330" width="100" height="60" as="geometry" />
        </mxCell>
        <mxCell id="LGfR2pY10DzcNVxrijDs-5" value="respond" style="rounded=1;whiteSpace=wrap;html=1;sketch=1;hachureGap=4;jiggle=2;curveFitting=1;fontFamily=Architects Daughter;fontSource=https%3A%2F%2Ffonts.googleapis.com%2Fcss%3Ffamily%3DArchitects%2BDaughter;fontSize=20;" parent="1" vertex="1">
          <mxGeometry x="300" y="690" width="140" height="60" as="geometry" />
        </mxCell>
        <mxCell id="LGfR2pY10DzcNVxrijDs-6" value="" style="shape=flexArrow;endArrow=classic;html=1;rounded=0;sketch=1;hachureGap=4;jiggle=2;curveFitting=1;fontFamily=Architects Daughter;fontSource=https%3A%2F%2Ffonts.googleapis.com%2Fcss%3Ffamily%3DArchitects%2BDaughter;fontSize=16;" parent="1" edge="1">
          <mxGeometry width="50" height="50" relative="1" as="geometry">
            <mxPoint x="369.28999999999996" y="418" as="sourcePoint" />
            <mxPoint x="369.28999999999996" y="480" as="targetPoint" />
          </mxGeometry>
        </mxCell>
        <mxCell id="LGfR2pY10DzcNVxrijDs-8" value="公开数据" style="rounded=1;whiteSpace=wrap;html=1;sketch=1;hachureGap=4;jiggle=2;curveFitting=1;fontFamily=Architects Daughter;fontSource=https%3A%2F%2Ffonts.googleapis.com%2Fcss%3Ffamily%3DArchitects%2BDaughter;fontSize=20;" parent="1" vertex="1">
          <mxGeometry x="750" y="200" width="120" height="60" as="geometry" />
        </mxCell>
        <mxCell id="LGfR2pY10DzcNVxrijDs-14" value="" style="endArrow=classic;html=1;rounded=0;sketch=1;hachureGap=4;jiggle=2;curveFitting=1;fontFamily=Architects Daughter;fontSource=https%3A%2F%2Ffonts.googleapis.com%2Fcss%3Ffamily%3DArchitects%2BDaughter;fontSize=16;" parent="1" edge="1">
          <mxGeometry width="50" height="50" relative="1" as="geometry">
            <mxPoint x="730" y="320" as="sourcePoint" />
            <mxPoint x="630" y="350" as="targetPoint" />
          </mxGeometry>
        </mxCell>
        <mxCell id="LGfR2pY10DzcNVxrijDs-15" value="" style="shape=flexArrow;endArrow=classic;html=1;rounded=0;sketch=1;hachureGap=4;jiggle=2;curveFitting=1;fontFamily=Architects Daughter;fontSource=https%3A%2F%2Ffonts.googleapis.com%2Fcss%3Ffamily%3DArchitects%2BDaughter;fontSize=16;" parent="1" edge="1">
          <mxGeometry width="50" height="50" relative="1" as="geometry">
            <mxPoint x="240" y="359.5" as="sourcePoint" />
            <mxPoint x="280" y="359.5" as="targetPoint" />
          </mxGeometry>
        </mxCell>
        <mxCell id="LGfR2pY10DzcNVxrijDs-18" value="" style="shape=flexArrow;endArrow=classic;html=1;rounded=0;sketch=1;hachureGap=4;jiggle=2;curveFitting=1;fontFamily=Architects Daughter;fontSource=https%3A%2F%2Ffonts.googleapis.com%2Fcss%3Ffamily%3DArchitects%2BDaughter;fontSize=16;" parent="1" edge="1">
          <mxGeometry width="50" height="50" relative="1" as="geometry">
            <mxPoint x="480" y="360" as="sourcePoint" />
            <mxPoint x="450" y="360" as="targetPoint" />
          </mxGeometry>
        </mxCell>
        <mxCell id="1pD8eMZOPtD5a8AL9G_5-2" value="" style="shape=flexArrow;endArrow=classic;html=1;rounded=0;sketch=1;hachureGap=4;jiggle=2;curveFitting=1;fontFamily=Architects Daughter;fontSource=https%3A%2F%2Ffonts.googleapis.com%2Fcss%3Ffamily%3DArchitects%2BDaughter;fontSize=16;" edge="1" parent="1">
          <mxGeometry width="50" height="50" relative="1" as="geometry">
            <mxPoint x="10" y="359.29" as="sourcePoint" />
            <mxPoint x="50" y="359.29" as="targetPoint" />
          </mxGeometry>
        </mxCell>
        <mxCell id="1pD8eMZOPtD5a8AL9G_5-13" style="edgeStyle=orthogonalEdgeStyle;rounded=0;sketch=1;hachureGap=4;jiggle=2;curveFitting=1;orthogonalLoop=1;jettySize=auto;html=1;exitX=0.5;exitY=0;exitDx=0;exitDy=0;entryX=0.5;entryY=0;entryDx=0;entryDy=0;fontFamily=Architects Daughter;fontSource=https%3A%2F%2Ffonts.googleapis.com%2Fcss%3Ffamily%3DArchitects%2BDaughter;fontSize=16;" edge="1" parent="1" source="1pD8eMZOPtD5a8AL9G_5-5" target="LGfR2pY10DzcNVxrijDs-3">
          <mxGeometry relative="1" as="geometry" />
        </mxCell>
        <mxCell id="1pD8eMZOPtD5a8AL9G_5-5" value="意图识别" style="swimlane;childLayout=stackLayout;horizontal=1;startSize=50;horizontalStack=0;rounded=1;fontSize=14;fontStyle=0;strokeWidth=2;resizeParent=0;resizeLast=1;shadow=0;dashed=0;align=center;arcSize=4;whiteSpace=wrap;html=1;sketch=1;hachureGap=4;jiggle=2;curveFitting=1;fontFamily=Architects Daughter;fontSource=https%3A%2F%2Ffonts.googleapis.com%2Fcss%3Ffamily%3DArchitects%2BDaughter;" vertex="1" parent="1">
          <mxGeometry x="70" y="310" width="160" height="120" as="geometry" />
        </mxCell>
        <mxCell id="1pD8eMZOPtD5a8AL9G_5-1" value="" style="shape=image;verticalLabelPosition=bottom;labelBackgroundColor=default;verticalAlign=top;aspect=fixed;imageAspect=0;image=data:image/png,iVBORw0KGgoAAAANSUhEUgAAAQ0AAACSCAYAAABfVZ8qAAAAAXNSR0IArs4c6QAAAARnQU1BAACxjwv8YQUAAAAJcEhZcwAAFxEAABcRAcom8z8AAHLbSURBVHhe7Z0FYBzXtf7T/2vfe33te6W0aZjjMDtxmjgOmZkdMzMzM7PMDDIzyCTZMtuSbMsgW8yw2l1pxdJqV/T9z3dnR1rJMjW2Ezt70tOZuYOSdX7znXPvzDwBl7nMZS67B3NBw2Uuc9k9mQsaLnOZy+7JXNBwmctcdk/2WEMjNzcXFosFSUlJyMjIcLS6zGUu+yn2WEIjJycH58+fx/Dhw/H999/jiy++QKtWreDu7o7ExETHVi5zmcv+HXvsoBEfH48hQ4bgb3/7G/7xj3/gzTffxLvvvosXXngB//M//4MffvgBR48ehdlsVgokNTUVRUVFjr1d5jKX3ckeK2gkJyejefPm+M1vfqPg4OHhodKSwsJCREdHY+DAgfjtb3+LJ598Uq2vWbMmWrZsiRUrViA8PNxxFJe5zGW3s8cKGgz+J554Ak2bNkVCQoKjVTMuz507F3//+9/xhz/8Ac899xxefPFFPPPMM/jd736nFMm2bduQl5fn2MNlLnNZefZYQIMpxqFDh/Dxxx/jo48+QlBQkGMNVCF0/fr1+OSTTxQcWN8gPM6dO4crV67gxIkTGDNmDF566SX85S9/UXWPgoICx94uc5nLytojD42LFy+ibdu2+H//7/8plcHiJ81qtcLHx0elH2ynshg0aBBMJpNaX9a8vb3x+uuvq+0IE5e5zGXl2yMLDaYRrFm88cYbSiG89tprKu1YvHixWn/8+HE8//zz+Otf/4qGDRuqZRr3o8rYvn07/Pz8SqUjbm5uSo2MHDlSdde6zGUuu9keWWhcu3ZNqQJCYfPmzdiwYQN+//vfY+XKlWr9woUL8eyzz6p23aKiohQQWL+g+uC+EydORExMjFpvNBrx1ltvqfUsnLrMZS672R5JaNjtdkyePBn/+Z//idmzZ6s21iL++7//WxVDabNmzVJjM2gpKSkKLByzUalSJQWU6dOnq65YwqNKlSrYt2+f2u5f//oX/vd//xeBgYFq37s11lXYAxMZGanGieiWn5+v1mVmZjpa7o8x/SIEw8LC1PGdjb8f/iys5+jO7XXLzs5WPU3O6+nsgna+dpe5rDx7JKHBwHzvvffw9ddfIy0tTbWtW7euFDTmz5+vulR37tyJbt26qUInu1vHjh2rgopGtTJ48GA1hoM1kfbt2+PVV19VCiY0NFRtcycjFA4cOICOHTuqIuznn3+uaieXLl1S6+Pi4jB06FAsWLBALd+L2Ww2lUJduHChVLrEY3MsCou6H374ITp06IDDhw8Xjze5fPkyevTooX4e9iQ1a9ZMdTd7eXkpwKxZs0Z1Tbdu3RqdO3dGp06dFGCbNGmiisYuc9nt7JGEBgucTEX69OnjaLkZGkxT/u///k9BgMXQTZs2qWBm+sFAYQFVt1OnTqkg+q//+i+lPBiMBoPBsfbWxl6WjRs3qvNQnVDJEBo8xttvv63Ac/36dZUGcVzIvRrHmPBaKleuXKwmfH19FTB5Dqqm7777Tp2b17Bnzx41JoX1Gq5n+1dffaWu6c9//jP++c9/Yvny5Zg2bZo6BkHK7eivvPIK3nnnHUydOlWdx2Uuu5U9ktA4ffq0CnDewXVbu3atggbvorQlS5bg6aefVorDWXJv2bJFtTNIuE7vnuVdmmqAgUXloSuF2xnTg5dfflkFLM/LY1DiE2b/8R//oVQN0wcWZKtXr64Uw7Jly7B169ZS40hu3LihIMeUijUY1lgIDKZUVD0Mbv48rLk0btxYBTkVElMMGkHA+g2VAtOQ3bt3K1XFAjBVVXp6uioQc78aNWqo1CUiIgK7du1SPy9BevDgQfW74EhZl7nsdvZIQuPq1atqmHiLFi0cLZrSYFDMmDFDLS9atEiph/LGXDCVqFChgrr707mvXnNg8FLFdO/eXeX+tzICgkHHc9auXdvRqhkDj9fh6emplAZ7eBj4DGLe8bkPVQ9TDm7DwisHmVEV/OlPf0L9+vVVbw+7khn8vB4qjr1796ptGejO0KG6IAx37NihIMGUjPv9+OOPji203iSel8pEt4CAADXAjeNbXCNiXXa39khCg3fzWrVqqT943qVpBAnTg08//VTdrQcMGKDydL1+4WzM81lI5d2W4GGgMuBoDECqAo4cDQ4OVm3lGWFEZUDFw3rBrYz1BXYH8zkYqgyehyqHd3deO1UHaw58HobKoVq1aiq4qRYY1Bw7wrSB66kGCBcGvq4yWACm4iKkli5diqysLAUzQoOFXqYb7CFiisPjjh49Wu1H8/f3V6qq7IC4n9sKbTbkWZJR6Bqd+4u0RxIaDGwO+eYdmHdl/S7JOgTv4N98841SIt9+++1NcpsQIVxGjRqlls+cOaOeRSFEdGOg/fGPf1SFw1sZocF0hmkIi47ORoXCMSRMcQgzphiEAY3jQlhjYYrE8SIs5DK1YmAznSFM+OwMFQivlSNZWZPgz8H05qmnnlLLeo2DP+/777+v9mFvEh/YY08Qx5sQaFQldAKEcGNhVrdfKjTyJTVL2rAWyVvc5d/a9TDhL80eSWjQGETMz3XJzTuxbhzR2bVrV5WCUEmweEhjNyrrDRwENmXKFNXG4KQK0NMa2urVq5X6oMy/nemSv2LFisW9OLQjR46oIiRTHAYj6w1URjQChQqIIOH+8+bNU9Diz0JwMQ1hTw6PwW0Z0GxjlyjPQeVBoOk/E1Mc9gIx/WHqw7SFBVEqDfYu8Rx0wqvs07y/PGgUgclkgfxMhomjEVzxTaTs3XXTdbvs57VHFhqU53rOz8BlkFM9hISEOLaAUiMMRkKFd1kqDDqLl7eDBp9FoYrhcym3M97tdXCx25NpAXtTvvzyS3XnZ3GU10N1oCsNgoC1FhZHWYfg/gTM2bNnFRT047ELlUVNKgSmJDw2VQqvTQcle4TY3cv0hG08DtUWUxsuM+25nVEJ8dhUKvc6LuV+W3Z+Ia6n2JArgCgSaBhnT8WNZ/6AsCqfIG2fCxy/JHtkocGeCxbwWC/g3ZpjMhgolO7sFdFftjNz5kx15yYoGHCU50wPODKUVhYavKPzzs47Os9xJ2Ohs06dOurcOsAYvAxkAoJ1CaqAevXqqe3Z1qZNG1XXoAKYNGmSAhRrDuwKJiSYVjC9YQrEYiaPyboGu3AJKtZrqDbYzn05jL5q1arqmHp6wnbnQmh5xnoLu6Q/++yz29ZvHrTZCoqwK8aGJUFWsIpRlGuFcdZkBL72d+UER+renShypSq/CHtkocFuSeb7HNxE1cF0hYAgHBhMDCKmARyP0KVLl1JdqATMiBEj1LwODdYnOFCL7dyfNYa7ff6EgGKvC5UO6xIsdrIgSeO1sVjJp3BpVAvHjh1TbQQAlQG7Q9mFyq5TqgTn93swsNkTxJGvOgjZhczUady4cQqEnCfgWFRlLxDneQznlK08Y0GZyoj7O6dXD9MIDA8BRrdz2Zh5LQe2wkIU5efBOG86Al99EsHvv4QgAUfo1x87wFHo2PP2RmXC2hddt6IibbmsO5vzfrrfSuXw74UD8Dil6fsWFJTev6xzvbPl5xeodmfTty1rt2p/mPbIQoPjGDiSkXd1BotulPlMFXh3592bRUa925V5O4OaNY3x48erNhY7WZRk/YFBz7SCCuZuVIbLfprZRTl4xNrQ53w22p3OxsTL2UjI0nq7LBvXOqDxogIHFUdoFQHHnu13BQ6mpoMGDRZFOVqpr7CwcFF1kwWyYzFhwkQMHz5COZfnzJmLhARtMF9ERDiGDRuOIUOGyg1kpIB5PGbNmg1//8tqPY1PSi9atFjtT0WoQ+Py5SuYNm26OufgwUPl/ENuch57zJhxcpNZVQzqHTt2yk1qMq5cuaqWeWNhTxuPFRoaptp4M3BzWygq2k2N1/k57ZGFBk3P3Tn+wXkAF+f5jlB9VCdTjjlz5qiCJbdnfUEfEcpaAWsOlPNcxzSCvRQue7CWJ3HvEWdHX59sdD2bjS7ig3yzccakQSP7og/Cvq2IoLeeUdAI/kADR5gojrTd21BUzvgbZ1uyZCmaNm2Gtm3bqa71wMAgdO3aTVK418VfQ/PmP0qa2lrS2zckJXxf/l581H7BwSGyXXd069ZdbfPccy/ITeRTHDyoKUWmt/37D8QLL7yIunXrw9fXT7XTtm7dJjerV/D111UwevQYTJ06DZMnTyl2Lvfo0Qtvvvk2vvrq6+Ib04wZM9V1TJkyVQGItaxq1aqr7Y4e9VbbhIaG4I033sR33/2gFOLPaY80NDjSkc9PMNjZ9Vj2bV009kJw8BW3oaJgd6rzE6xMR6gu2NPAl/OUdwyX3V/LE4VxKN6OPg5g9JDUpLs4wbEqVOS+yPwCSe9YDA187SkEv/u8AxwvO8DxEVI99qDwFmkDjaNeGeD892TXNZ01oapVq6NSpX/h+vUbiI2NRePGTfD551+omwwtLy9f7cu/LXbHM3AbNmys0l+qlU6dOitgEDhBQaXrQLt27cbbb7+rQHX06DGVEvv4+DrcR25GF3Hq1GnUqlUH33zznUBD+zs8e/YcvvyyskCqhap58VobNGiETz/9TG3PtOfAgYPqWvr06XvLdOlh2SMNDRoBULduXQUFjstgnk9VwecrmHKwxsFxCr1798bJkycde2lGRcE0hoVA14t3Ho7x7/2C2Yb+oiq6nNGAoXtnWR56MQeXUzS5b080IH5ADwS98U8EVvgngt9zpCqvPInwal8i62LJXf5ujHWm2rXrqrs8oUDj6GBnaDgba0KvvvoGevXqLcr0Alq0aInnn39BQUFPG5yN0Pjgg49Qpcq3ap+BAweJKhmgnME+c+YseHp6oX79BgKN74uVRlKSGTVr1pK/w0pKHbNOokPjzJmzaplKhYpnxQrt1Q8/pz3y0KAxZ2U9gr0HhIezU0U4d6fqxtqH/nAZi4EueziWYivElKs5ChA6LKgyisEhamPuDSuSc7W6hd2QALPbLIRX/wpBr/0Dga/+DUFvPoPAl/6ChKF9kCcBV57xBrFy5Wps27ZdKQcaZX+dOvUUNPTHBtq1a18uNJjiTp8+A++994GqIzDF2bJlK/bt2y/zkY6tStvOnbvwzjvvoUmTZtiwYaPqxSJImEaz2MwHI728jqJ69ZpygyuBBmtuVDDc9+TJU0ptUN0QGufOnVe1j6ZNm6Ny5SqiWG6G28O2xwIaulE58DkS9oSwkNSoUSMFBXahUoFwHQduMZXRe1n69etXfNdx2YO1AlEZJxNtChLsLdFB0U1AQec80xWu3xhuRXaeVrcolDw/+5IfUjashmn0IEQ1rKrAEfTui8jwPKi2KWu8q/Ouz7s3h+snJ1vUMHyqgIoVP8f+/ftVytGuXQeVrpSFBnuqmjVrLmnrNyqQWZzkzYlF0JyckneTOBuh8fbb76lzsHbRq1cf+fsaoHrGevfuo2olhAFrEzwuX/Gg25w581Q7FQV71ViP4XWyZhISEooKFd7C999XLX584Oe0xwoaZY05LVMVPkLOcRccEMUh5lQkfFCN3ZIskrrs4VhWXiHmBFiLAcEaxghJRzZHWDHqslUBo6ejvff5bOyMsiLLrqUqtBwRH6nxJhSGXEOOxw6E1/sehsljUJCtdW87G+sP9eo1kH/3Crh69ZqS+Q0aNFR3c9Yd6tdvqOoM7duXDw2OsmWBtFGjxupOz0Dms0ZMb9gzwkAua0wt2NNCdVK1ag0Frho1auGpp57B0KHDsWnTZqxfvwFbt27H4cNHSr2YKTIyCtu371DKgnCiGiH0+JoDgoLKxfmdKT+nPdbQ0I2PpzMd4SP1LG7xmQ8WwVz2cC0xpwADL+Ro0BDvejYLi4M0RXHMIApEQMF1BAfTl57nsrAj0oqMPC1QktPz4bYjGZM3pyI8CcgLvgbjojnIvn5NrS9rnTvzUYI3VVdmYqJRKQGmJp98UlEFI9VEeekJx0FwW/ay9OvXX7WxV4MjhHm3f/rpZ0U59C1+TaRuTCvYQ/LSS68qtcF9q1atJgriLXTs2El1344aNVp15c6dO69c1UAosBeFwHr55VeV4ihbcP257b5AIz8jHblhQci+eA6ZZ7zFjyHL9zSsN67CbjTIL+LnHYzisl+GBacXoLdPSTrS53wWPGK1rnJrfgG2CCCoMvQaRycBRy8ByfFE7WlXmyiVUYvj8XRVfzQcHAbva3bkRoYiLzFerXc2Bl+HDp0UNDhAjsZeCb2mwQDnTbtt25uhwXVjx47Dhx9+jOXLtZc66cZaCbs9n3nmeYHCwFI3n4yMTAUWKgbWM/i0NRUNu1PHj5+gahusi/A9KR4eB0opDd3c3Tfio48+UeqnQ4eOKmVhWvNLUsT/NjTsxgSke+6Dad5kGEb3QVz/9ojt1hwxnRpp3rUp4nq3RsLQbkicOhyWjSuRfcVP8lPX486/RmOAnjXaFQQIDG1cRhbOJ5aMr2H6siXShh6ObQiOtqeysSY0t7h7dcVuM56tfhnPVPPHDz2C4Xej/Hev6tBg0F25okGDaQa7O9m9ybEOLECyplEWGlQgderUVcVKP7/SY3aoQo4fP4khQ4apQVpMcXRjGsT0ZMqUaZg+fSYmTpykunjfeKMCevbspdZNnTpdrV+2bPlNIGD3KhXKu+++J2DZorqItbEkFQQ6ExX0fgl2z9DIz8yAZft6xA3siOg2dRBe+3OE1/gUEbU+R0SdSoio+4XmdcS5rmZF5ZFNvhWoNEPitJGwhv68D0e57OEbQ/6cEzRYvygLDVpOfhH2xBAcOegu27Q7laWgUaSOACzflYQXal7GG/Wv4mkBx6RVCchy9LQ4mzM0AgKuq7ZbQYN3decBfXz696233laDuzhuozzjIwYclZztVE/hw4l8FGDBgoVYsmQZ5s1zk/PVxuuvv6G6X1mc50utWah3d9+g6iS6cSQqx4y8+urrKsWx222qnWM72D37/vsfFr/K8ue2e4IGgz1xynBENftBA0W9fyGy4deIbFTlzt7gKw0i4rF92iLjhOcdR/W57PEypid9BAbF6YlPFvbF3NwTEZFZgL5+VnQ8na3SGT09oU1fa1Aq482GVwUeV9BuTCiiDTcfg9BgveKFF15SqoDdrhynUa1aDaUsnKHBQVMcTs5uVioJFh21kZ3fqNGa7HrlkG4632LPZ5xYYGc7x13oxmHkVATDhg1TtYuhQ4cp5cDaCK+F52A9g0PJZ82aI9eg1TSoOKhEXn75FXTr1kP16jgbUx1Cg3Dbu3efo/Xns7uGRs7VC4jt20ZUxL80WDgDgeCgEwz1Ned8cXuZbalKotvVV3UPl/16zJhTgEECAwJDHwG6ICgXefqzJEWFiEzLVcVR1jMImF0xdvXYPC0i3oofR4TiRVEahAanHceHISax/AcL2Y3JMRO8c1MVUB0MHDhYDRGn6iAgWHSkopgxY5YqdrJtz569aNWqDdq0aYf27TsqsLD2QWfw01u3bqPGVhw6dNhxNkiK46O6Vrme6zp27Kz24basT7CNznnCw2jUvvbH1zi2atVaAcP51Q665eXZ1bMqrI+MGDEKBoP24OLPZXcFDWtECOL6tZNg/+xmCDSoLBD5EhEyH9O5iaphJAzrjpgeLVRKQshENqxceh/xiNqVRHG0hjX85l+Syx5PU12u1wUaAgwdGoP8coqfN6Fl2gtwPTUffkn5CEnPl3RFAwaL6Yu3G/BGg6sqNakg0GBtY+a6BNj5IEs5ZrGkqB4O5zSA3aLs0qQSoZlMZtkmtngAGI2AYXd9bGycmtI58pjO42nL2rTsM08sjHLQlrZ9jJwrQQ1l534cNs5zcRteB8d+0FhDYdutPhlKI/B4DO7v/A2bn8PuCA2OuDNMHobwOl/cBAzWLqJa1YR52VzkXLkAe0wk8owJ4gbY46KVOjEvnY2oljXUts77KsUhQDHOnYiCrAzH2Vz2OBtfh3HSaEPPc1qKQnCwtjHGPwdXLQSHFshljQG+wysJldpdxyt1riiV8Vq9K/j4xwB4+pQ/MI/Bqgcl0xJ2szs/ucyBVRyerRtTFY7NYGDr7WzjcyN67wtNP1ZcXEmPDVMdPgBZ9ulTqhYe07mHhakH6xTORVCehw/UcXsap3wpEouzercs23gcnsMZcD+H3RYaRchDpt92RLUVWNRzUguOgI8f2QvZAovyBtfoVpCdifTjRxDTvfnN4JA0JqpNbdiiXG/C/rWYJbdADSPvJukHoUEnQEb4ZWFbQCaiE60oUOqiSNKFQgSEZ2DCihh81sYBDFEaFcSfE5UxfEEsMrLLL1RyuLcerDduBMLNbYEKYBphwq5P53ESvJPv3++hei102HDKh8lYR9ADmo/I8wVOzoVTvj2tb9++qqbhbFQYq1atVukHu3FpHJU6e/Yc+PldLD4mxw+xp4XjiWg8L9MR1kzYI0Oj+mEKxeJqeV21D9NuC42CXCNSz/WBcXk1RHX8VoLcAYzanyNhdD/kipq4G+P7DzLOekv60ljty5RGOesfktqkeWxXL15x2eNv1BL+lnz098lRKoPdqnqq0utMJgZ7pqL3snh0nhCKFkND8UPXQLzd6Apern0FFZiWCDBerHUFtfoG40LgrW9WvEvrBUWmEXxHqh64vLMfOeKpnkTNytLaGMBUIlQBzsY0gm9f040Khb0gFy+WvNSJT8xytCcfq9dBQGNaROAcO+ZdPPT80iV/tT3PSwVFZ1fr6dNnVC8P6yq8Po4H4ShWHSS8dl7z2bPnVZryc9ptoWEznoLlaD1YjtWHeWMdxPb/AeE1P0dsz1bIDvB3bHV3VlRYANPMsQKNz1SRNKrp94jt8SOMU0Yg4+QRFOX9MvqgXfbgjWmKV0Ieejl6UggNwoO1jo4nstDqQCoarTehysRofNonBJ90C8YnXYLwSddgVOwXhsZzo+F1PQMFt3n9H8c06AHMINRrGLqxLsBiKNfpxm30F+roxvW68qAVFOSru75zXYFv4mJKU3YcBY/HYOe2+vmdj6Ub1/Nac3NtxdvxWM7nZjvnte3u7o1yD8puCY3CvExkXp8Dy5E6Ao76sHg3QNKOuogZ8BVMblPlhygh6t1a1iUfJG9cgYwTh9UI0jxzIgrS01CYK/8Ajl+Wy34dxrd2HUuwqRfvEBzF8DifjZ6+OehBJXIyE528MtDhSDraHU5Hm0PpGHoqHecSJIVxHMdlD99uCY2C7DiknGwPi6coDa8GAg5xLwHIodbICTnm2OrejOMyCh2DVlzmsgK5UQSl2LHwRo56QE3VOBwAUT0sokQIEPqAizlYF2lDrLXwFuVSlz0suyU07BZ/AYZAwlNUBqEhnnyoOtIvDkGB9c4fR3aZy+7W2BV7Q+CxLcqG2QFWjLhkxaALORjjb1XjOPbH2hCWZofV0f3qsp/XyodGUQGscQc1aHg5Q6MqMq9Mkg1c/3guu//GlCUrrwjp9iKkiXOanS+5/G1qFy57+FYuNIoKbMgJ3yjQqOsEjfpIPlwdWdfnOra6teUXFMEu/9j34uWVNNjEY+WVcbbRH9bfUlF+PopYkHKqjLvMZb9WKx8a+TnIDllZDjRqIitwkWOr8o0PFu08l4mBq5IxaoPljj7C3YLRMjWk3FxVTrcWwM0jDVN3pGDazhRMkSl9uszP3ZeGXXKelKwHWxIjMJJXzIdx+mjkXLkoDa67nst+3XZraASvKAcaNQQaCx1b3drm7k3D1yMSUHti4h295vhE1JmUiEjTzdBIyihAqzkm1JqQiAZTEtF4urHY68tyvcmJWHgg7bZdbz/V2BUcy4Fp9b5E+pF90uBSGy77ddst0pNc5IStKwMN8UPVkRMwx7HVrY0qoIpAo45A4U5eS6BR9zbQaDHLpKBCtXE8wIoT4seu5WCBRyp+GGNAu3km+IaWHotPtWMrsCM33wZ7QdnjCmAY+EUOhVIkqUehXWtzGMeUFNlytbSkMF+DRt0vkH54b6ntXOayX6OVDw0JFGvMnlLQSFHQqIrUy5NQqAfcLWz2njR8OSxeVIThJicoCAnda4uKoGK4NTSMSmUw5XG2EIMN9WW/ZjOM8Lyijeqj3rDkpONg2EnMPLsCk08uwhK/jfCJv6ogorbJy4DNeBLW2APIS7mGnMhtyA5ahPwMbeRdflqKGqFqmjcJli2rkRserEGj/lcupeEyl4mVCw2aPclXoFFbQSNVgJF5tAGu7K+BncdHID7z1k/j0ZYeSldA+HG2qdhbilM1EADO4LgbaDAVWeudgZSsQqSKG1PzseV0BqqPS8DgtcmIs2j7JmSYMdxzJr5f3QKNNnVBsy09UGd9e9R1b4/dQUfU258Ks+OQfmEoLEebIPVUR1iON5f5hrBbfGHj04dj+yOiQWVE/Vgd0R0aCDB+RGTT79QTuy5ouMxlt4FGfmY0UrybI82rHlIFGBcONsKgjY3QdGtveEeXvOLsZitCbJIdFyNycSXKVuzXom04G2xFjyVJqDbWcNfQKK5pyDaNphnRaKooj8lGVBtnQIuZRhy8VPL8ga8oisabu6GPxxicifVHeGocxh6bg08X1cRY73lItokisRqQ7jsYyQe/F2h0QFbwUmSHu6MgPxlJKxaoNCS6fT2kHdqN7MBrMM4ej8jGVcS/cUHDZS4TuyU0Cm0pyPIfD+OROti7txFab2iJH9a0wjermsPNZ61jq3uzDGshBq5OVrWIe4EGt2kugGg/34z2bma0nWdG0+lGtR97UuKStX3zCgsQmZaAAHMokrJTEJ4Sq1KUz5fUw+AjUxGXZQFyE5HuNwRJHl8jO2yDSsVorGMYxvRDeNUPkbJrU/G7TPOSzdqDdq70xGUuU3ZLaLBAmBKzH4t3NELttS1RdW1rVBevsqIJeu8fg5j0e397ULatCIPW3Bs09PRk/fEMZOQUIlPAkyztx67moIObSSmOuXtTVU8oi54XDdcx59wqdNk7HC2390WjjV3kmhtj6JFppaGxvzJy4484zgT1To+EIV0Q9sMHyL5UoqSKClgIbeHqPXGZyxx2a2iIRafG4MetvfD96h9RQ4BBr7ZGALK6JWaeXobsvHt7g5A5vQB9VySh6j1Cg3WQ3edLPwbNbtYVnmn4aniCGhOSkV2IUzE+qL2+HZps6o7ZZ1firKQoi3zXK6UxTKCRkJVSSmnYEku+7VpgzVZvHSM0snxK2ot7T1zQcJnLlN0WGmm2LMw4swLfrWpWDA16VQWRNiogU6xpjq1vbXbhQWJqAVZKkDOtYI3inpSGrF9zNB1JAh064ROSYMeojRbVtTt6QxqSs6xY4ueODxdWx8QTbmp/9qasurQVnyyqheGe02HITi2BxoEq6tF/3bht4qQhCK/2MczL5iAvxYLCPDusQVcR3a6uKo66oOEyl90BGrQQSxTa7hyIb8uCQxQHwTHi6Eycj7sMc3aKGheheijEbZIqECihKeHYcCYG3RYnoc5EY7ldrmyLMN4MDbNAg5BhOtNythG9lycp77ksCa3mmvDtSAMaTUvEXp8cCfo8rPbfhk8W10LHXYNxJPw0tl0/iFbb+6HSkrroJSlVZLpRg4ZPf5j3VRKlccJxJs1S925FZLPvEVH/S/UaQsvmleo9puF1v1Bt6Yd23zM0CCO+wjK34NFy28/sBfzF3WfLzad6LoQx6wEc/Fdkd4QGAcAArOve4SbFUX1tK3y/qjnqyLohntOwxn879gYfU77h6h6M856PRps74vtFE1BzylXUmZAkoDCWgkb1cYloODUR0eaboWHhq+xXJKPdfDM6uJllalLO+Y4LzOi+xIw1x9KRa9cC+ZopBD33j0KjTV1Rd0MHtNkxAENFYXTbNxJ9D07AjeQokT3JyLwyBRbvpqpb2dkKcrJhXj4XMR0bIKpFNUS3r4+E0X0RP7SremFQ5knPe4ZGvvx9xskf6ZXkQlyz3IOnFP2sfj2lENclwB62B4gHphUixXZ/A9uYWYgN/ja03pKFAQesOB2djyy7Cx7/jt0RGrSc/Fy4CwTqbuiIb1Y2VbAoBY81rVTK8sPqFgoiymWebayBVF/XHDUWzUKdKRGoO9GiYMEUhQqCQ8KXHkpDJr/uW8b4INuNWDuuOrpsrzqcbaEGO8xp+QI1x8YOi8s04VD4KewJ8kKwqCTWXcJSYuCXEICkHEmlCu3IzwgXdvij0HZzasVelJwAf6Qd2ImsC+dQkJWF3Mgw5Fy7hHxLkmxwb39oVBkh6YU4lViAM8a797Omwp/Vz5sKcN788P2cnNcvqQAm6/0J6JTsQhwPs2HgngzUWpGKGivSUGtVBppszMIiH/lbknNS2fyaTX9b2N3aXUGDZi2widw/gBbbeoviIBhalAKHgofAxNlL1nG+JWrN24yaExJQdYxJ1SmYauw4lwmb4wO/j6MRGqECjdMCjbOEwR2cweorf8gXkgoleArhYy6UQHr47iPX4SPX8bCdP/+F+wCNHFGfF2NsGO+RhupuSfhufhK+X2hBzWUpqL4sDTVWpqPm6ky02pqNTVftiBV18++eMcdqQ6IpBZaUDNzqi2x3sqwsKwwmC1LSMu85iH+K3bhxQ71P1flTDHeyu4aGbhxANeroLNTf2El1v9KpLFjjoOLQAOEAiEOBcH2VFY3w9bJWqDv/kKQcFqzzzoAh9d/7BT9KdrfQYMD4SrAcT8jHAZHO+2MKcDiuACdlP8LD9yHD41GGRqjRhsVHU1FnrgGVpyXg65mJqDLbiLbrUuB2MgsTDmeiydo0VFsuqmN1BmqvyUSf/Tk4FMo63L2f1/PkJTTpOAlDJ65CRNTdvaDKZrPDYLQg3pCEvPwCHDt1GW37zsKU+ZthFQjdTyOE+L5Rvv/U2fm+0fXr16Nfv37qu7FcLm+bsnbP0KBl2nOwM/Awxhydje57R6D5lp6oua6tKJAW+FogUnlFY3y9UmAiKQq7QH8UddJj/yiBzXSsv+gNQ9rdU+1Rt7uBBmHhFZuPFZJzjz2Zgx5HstHZKwf9T1kx/VIuNoXlqfTmYaqORxEaqVn58PBPR5tFcag0Nhr/mhCLLybGop6bAaP3pMBX0lyaTdLe/ddzVcpSb1Ua6qwW1bFG5tdnYfopSYXl36S8B6fDBQjuO45h+/7T2H3oHHYePIM9R86jeY9peOKPVfC3d1tg+LS12H/UF7sOnpX1Z7F5zwl4nfJHeob2fJRu14Oi0HXwfLToNgVxAo59nj5q/4o1+iJV1Mb9NL4V/fjx49i5cyf27NlT7B4eHli0aBE6duyovjHLTzE4r6fzLe6Eh7P9W9BwNg7y8oo4izX+OzD33CpMObkYk08swNRTizHv/Bqsv7Ibx6N9EZdhKvcf4nG3O0GD+fuhyDzMOiWQ8MjGQAHGsONW9PG2osXBbNTek4UfD2Vj1mUbjhuYujiCOklUX/LNznbn4D9vLoJP2e0ssp1MuU5t43wsxzqeRw/ki6nApTTgQormvkydkotwQbZVbTJlG7f1c7T5ynq2ccr96Vqb1q4fu6z/FGjs9knFt2PD8cnQMFQaFYnvJ0ejn7sJ+/wzkct/CCdLtxZi5bks1F+RglrLRZWsFHisSUfVlZnotc+KtHLOv3aLJ/7rhbr4/csN8MQ/a+C/X66Pv73dDP/8oBWer9gOz37SBk+93xL/+3oj/MfzdfCbZ2vhP1+si5o/jkJYZIKkMbmIjjPBnJwGr+OX8OLnHeQY9XAjJBpXrkfg+U/b4qXP2sFoToU114bg8Di1/U9NV/jlth07dqgPSFNZrFu3rtg3bNiArVu3qqlzO33lypXqmyxl36D+k6Hhstvb7aDBIDkak4fZJ3Kw4JwVJ+LzcclSiEvJhZKW5GNloB09j+eg/n75496XjZmXbDgl+zGgT8ZZBcaZ4lml/Kzsd0ECVIeFnwTwydicUtt6cz4mG2cS89R6bnc8husy4R2ViVPxucWAOG+Su/e1WBy8Ho8TMbI+Mk210U9EZajlk7FZCiIXZfvTcXKuqPRisFAdeYUlwys0Sc2zjeAoCwvdfwo0lh4x44uhwfh0SAhqT43EMi8LLJml75Lsdj0fbsW4/amo7mZC1QVJ+GFBMqouThFwSNuKNHTakYUE+Tcra6ER8Vi54RC6DHbDE09VQ6U6A7B0nQfWbvXSfIuXKBFvdOg/F79/tQHe/LoLJs7eiMPeF1TN4rRPAFp0n4YZC7dhz4GzeOub7vi/NxojMDQW8QlmvPR5ezz5TnNExBgQFWtE9RYj0ab3TJXK3A+zWCwqDYmIiCjl/JZL2Ta6/p2YsuaCxgO220HjgsBh8Rmr5Nk5KlguWQqwKSAPM0/asSMoXwXenqh8DJFtGokK+fFwNjZLquIjQbdG5PGoOUsxYuZCjJy1WDnnx7utwubTAUoxHI/OxvzNHhg5U9bPLvFh090wY+0OAUSGwCARU5ZvxPCZi7T1Mh0+YyEW7/TE6fgcnE6wYtKS9egzaiImLl6L6Ss3Y/u5QLV+4qK1mLZ8EyZJ+5YzAdhzMQKz1mzHlKXuWLjtIBbvOII57rsxXM43eNJszNuwB26b92P7+cCbYKH7T4HG8sNmVBp8Ax/0vYHRmxKQlVs68ANjMrD0GGsdCfhyajy+nmHA17OM6LDegkmHM9BgeQp+EHh03pYBQ8bN0NDtjO91/PnNJqhUdyBCwko+uajbtIVb8cSfv0W3oQtgFXWhm/s2L/ztnRZo1nUqtu4+gXe/66GgESTHyMjMxqtfdMSfKjRBgKQu8cZk/EPSlRdEfSRZyv/05L0Y1YqnpydmzJgBNze32/r8+fOVMzW5bzUNl9293Qoa7F48EpkPN+8cbL0meXRakUpV+uzOxRezJE3Zb8O+cFEeAhZvSUsWBtgww9+G+bLtsYRCuHv5YdyC1Rg9bxnGzF8hvhJj5i1H7xET0bn/MOy7EiuBexgtOnZTEBjnthJjHU44zNu0B/uvxQtsFqltRsxcgBHSPmrOEgwYNwMtO3XDEgHD3stRChiVq3yDL7+qjEY/tsUIOV7vERMUbFZ6eGPYNDd1HMKh3+jJGDV7EZq164S+Mt998Ci06tITgybMQOOWbWW/8Vh18LQCRHlpyk+BxrIDRnzW7xre7XENk7fFIyNH60stlLx4y75r+Kb9Drzy4xF8PjocX0yIRQM3AyZ5pOJCtA2GtAI0Xm7BN/OT0XFTmkDj1v2wpqRUNO8+Ff/5TE3MX77b0aoZe1AadZ6M3z75A9YKJJxt7VZP/PPDVmjdZxa27TnpgEYjBQ17Xj4qVO6CP0pqc/FKCNIzsvBOlW54/pO2kr5oX1TjR5XY23G3fv36daUs+P1ZQoNfkPP19cWlS5du6/wuLZ1fqCsvNXJB4wHbraBxQdKQdX65WH7aKmlCPnYG52Oytw0jDuVi4lEb+uyxCjis2BmSh83X83E4SlMmhMbB2AKVCpyQFIXphJZ6SFohqcGeS1Ho2HewBPQm9BKAjBewFKclsu2xyAycMeQhUGJig/dl2XYQNp26BmESJPXH5SzguqhhQmbolLnYfOoKWnfpgaZtOqJNt16oXrueAsaA8dMxb+NeuB89j7ECrbECrMGTZmHo1HmYsmyDQKe7qJJNWLH/hMBjEqaJQhk6bT5mr9sJzxCzqKXy6xo/KT3xMODTnpfxVmd/TNwch3QHNNLSc/FJrSV44rnR+OM7U1Fp0BUM3pyMw9eyi7v7E1ILUH+RGZVnmdBufYqkJ7cfvLFmiyd+9/eqqNt+ApKSS8b7bBUYPClqoXLDwSqdcTamMk++1wIdBszDjn2n8M63JdDg92vf+aabggbTmKxsK6o0GoJnPmqNY6e1D1Dz27CjR4/GqFGj1PROPmLECMyaNav4045+fn7YtGmTqm/czrdv345t27YhPDzcpTR+DrsdNFaey8WKs1b4Jheg354cVFuciXGeuZh7xoaxMu29SwDibUXDtRmYdELgYirEIonuQ/GFOCNpw/iFayR4ZyjpTx8iQd5v7FS07NwDo+cuE8UxXKAwBIMmzpY7/SzlA8fPxIAJM7FK0ptVB8+i26CR8LiWoNIZvXhKcMxau1OON0fVIhjok5eux9wNu9Gh1wABw1x0HjAMDZu3QuNW7dGh90Cs9/JVgOov5x87fzmat++MPgIXQoNQqdekBdYeOS/nn44dPkEOlXF/lcaSfQn4uOtFVGh/AeM3xBRDw5BsxedNN+J3b0zGM5WXYs7OGPWIgrPFpeSj7vxEfDktEe3WJN8RGpExifiu6XD8zwt1sHjtftVGldGw40T89u/VsMz9oGpztrlLd+HPbzVFjxGLsOvAGYEGaxoaNBic74vy+INA46hAgkVTHuupD1tiuwCGxg8/e3t749ixY2p6Jz969Kj6wr3+lXl+/X7Pnj3qI9S3c/aisGeFtQ6X0vgZ7HbQWO2Ti5UCjYupMn/FjkW+Nsw5k4s2mzIx1jsbSy9bMdI7E0OOZGDDDZsaqel2VaARJ8FlzMOS3cckoHdhzoa9mOO+R1KOfZi+apsE8SBV7+gycIQAYxbmbtwn2+xR28zfshcDJ85EV4HFzLU7JH0YDY+ABFzKgAIHnaqD6wbJdix0Lth6EN2HjEL/cdMEPAIdmQ6UdIPA6jd2sjrHkWCzqJsNahvWPlp06IJ+YyZj+d7jGCnpzI+yvGSnl4LbTr+QBwKNxbvj8UEnP7ze2gdj10Uh3fFFeWNaHmoN88MzdfagUs9ziLfcPA4i1pKH2rMT8MWkeLRZaUaC7HMn27z7OP7ySn18VL03jp70x9T5W/Afz9dGfVEf7EYta1PctoiSaIihk1Zj/+HzeFsVQjVocGTZW5W74jfP1YaHAJjfde3Qfw6e+qAlVmw85DjCTzN2vQYFBamv57NecSvnB6+pTsr77izNBY0HbLeCBoNmX7Ad87yyMdczGxsu5goItDEbiy5noucxM1odicfUi6lqjMYlSxFOJBTA7bINRxzQOJ1gx2mD5kw5zhrzsd0nREFjwbbDKh1gcfS4pCVcz+19CatD50UpDBeQ7FPwmLZqq6QtafAKS8HR8DQcCoqX1GY8RkxfoIqhBEa9Js1VvaLX8PHi4zSXbXoOHY3vqtWQVOcipqzYiL6jJqpUpXGrdmqbWWu3Y+jkOZjrvhtjRP1w/52+DwYaC3fF4r12Pnil+TmMF2hk5DigkWpHw8mheLfXDXw7KhSRxpuhEZ8iYJkRh8/GxaDlskTE3wU0OPZi4rxN+MvbTVUR89mPW+ODH3ri/MUbji1K2/Apa/DbF+pi6oKtOHzsAt6SdITQYO8JodG8m6ROtfvjjM912Ox5AuiV+Mf7LTFz0XbHEX6asRA6dOhQzJkzB4sXL1ZjM8o6x21MmzYNw4YNU1/bL89c0HjAditonBP3k7Rk1uFsfDU4CVWGJWPktkwcj8vHUaMdS4LSMNrfiJ3RObiYDFxksF+zYUOQQMJUhOX7Tqi0o//YaeqOr9KOcdMlwEcLLNxU/WLjiauSogyVYJ8iymCmuKQosk+XASNUD8rRCAvmbtqP9pJyqGNwG1ENvYaNR4+hY7HpxGX4p0MVR+s0booW7buotMPZm7XtoIqeuy+EiTrZjkXbDqkelh7DxmLS4nXoKVNe14SFq0XVjERXUT+HAxPVmI37Do0d0Xi31Vm81PQMhi4Jg9XxICOhUW/sDVTo6I/Kg68jwnjzV9epNKpNiUbFUVH4cZFBQeRuzPu0Pyp82QlP/KM6nniyKroPdYNNVEJ51nP4IjzxdA0sXX8A3qcuo0KVbvgToUGlIcZekwuXWQTNRn5BASbM2YQn322B0dPW/eSxGjSmJpMmTVJKw2AwqBpJWWc705pBgwap9KQ8c0HjAdutoEFnYXN/iB0/zknFK22M+LinGb1WpWP3dTsuphTCLz0f/mkcRFWEzYE2zD5nhZeoDAbcOq8LmLZyC6Yu34RpKzYrnyp3+oXbjwgM0lWawbEaO0R5zFq3U6mJ6au3YaoE9LzNkrMyJREgnBL1seaIb/F6HnOWpDy7L4TLeTlWowh7/aNUisIUh8VPZ58rbes8fdX4jL2XIpWKmLdprwDLH56SsrDrld2wM1ZvVbWRNYfPKZVUXs/JT4XG3E2RqND0JF5pfBLf972A1QcSkJqZh8ycAtQfHYDX2vrhy/7XEG4oDY3gBCum7TKi8uhwfDo8HE3nxRW/rLo845DsywHhWLx6P6o2H4k/vNoQz37UGn95q4lSG/1GL8X+Iz4wJWm1BN2adpmCJ/7wNTbtPoFT56/hjcpd8IfXGggsyg/O6Qu34XeiTDhylD1AP9V2796NBQsW3HL8hW7scRk5cqQLGj+X3Q4aChyWAmy5YkOL2al4s6MJr3cwqSeBh27KwvRDVkw5lIPR+7MxxTtbdcGedxQrL6RpPR2X5d9fTR3OHhCO7FRFTYEGB3o5r9e34cjNs0ZtNCjhUXYbjuBUgSxBzPmrcp5b+WXWQwQC+sjPKzyHHJODwzhfdttb9ZzQfwo0NhyMR4VGx/F0zaN4qeEJvN/mLPq7BcP9iAHfD7ysah1f9PZHlENpxCfbsP5oEtrNjcBH/QNRcUgI3u0fjB/nxyA5q/SgMFpgSAwmzd2E7sMW4pPqfZSyIDC6SFDvPngWqzYdxr/qDpT2H/DXt5qifseJGCYpyS6P00o9jJ3pjs+q9pL0JQhXr4fjFUlpnnimJlr1moGxszZgtKwfPWM9Roqy4Hn2CmCnCTj2yfQ+CA1V3Bw4cCCWLVuGjRs3wt3d/SbnyFCmL3379kV0dLRjz9LmgsYDtjtBg86i6O5AO0ZszUSjaSn4rG8SPuhhRpWRFrRanIYx+7KxJ5SDujgsvGSI+IP0R/HZE4M5F8t3xuDLDmfxVHUvPF/vOJ6vfwIVO53HB+3P483W5/BFz4sIjMnGYSFaD7cwUXdX8E63q3ivVwA+6ncDPZfFwDsgs9yv9i1d74Enfv8lfvt8bQWNQRNWYeeBM0hJFRI6jM+UuK3aiyZdJuPpD1uqQV5f1OqLYElB4hLM8L8aprpTMzJz0Gv4Qjz9QUulJn73fB2Z1sF/inOI+j/eaYaQ8PJrCv+u7du3Tz2ctmTJEgWIssPG6Rxmzm7a3r17q3Ed5ZkLGg/Y7gYadIKDA752Smqy5KQV849aZZqrlpn7M0UpL7gflD+K0NDt3JUUDHULxLvNT+CZmseU6qjQ4jTeanUWH3X0Qc95Ifi6rz9eb+OLNztcxFudLqHRxGCs8jQjxlx+PYJ2LTASbiv3qgfWrkh6crvbvzkpFcdO+WP15iPYtvcUklNKwKIbh44fkNRui6zftq/Et+w9iT2HzqlRovfTmG6wd8Rmu/XPSGMXrY+PD9LTyx+J6oLGA7a7hQadL6AhPPzTCnElvQiXHfWMh6UunP1RhgYtMzsPHqeMaD/uCl6qewzP1zmGCs1O4a2WZ1Sh9NUW5/Dyj+fwZR9/TN8aiysRkke57K7MBY0HbIRGsEDghKFAdZ3erZ82Cmh+RlcgkwB+2M63lvElRMafCA3dYhOtcD8Qh3oD/PB8bVEdDY7jpUYn8XbLsxi8KBTel1Jgtck/ksvu2lzQeMDGF+Qm5hQhKLUQIQKPu/VQURo/r/MaHr7z1YjhGYVIv8/v77wRkYkJy0NQsc1p1O7vh01HEpCcdn+eHv21mQsaD9j4p58vNzK+h9J+Ly77/Jr9Qbx7JSsnH2cupyAg7Ob6gsvu3lzQcJnLXHZP5oKGyx5Z42vo+EJcPvrt8ofnLmi47JE1PhnKh6rsdrvLH6K7oOEyl7nsnswFDZe5zGX3ZC5ouMxlLrsnc0HDZS5z2T2ZCxouc5nL7snuGzTyCwCrrQi59iJYHc55vriVX7Tix5zpeXTZltvnFxQ5ppA2zpfnQEFh+c5BU/TS7UWlljlIqJTr7Wpd0c3rb3LZRmZKXNpu5eXuX47L/91qf/mfy1z2i7b7Bo0MaxGiTAWINhcgypyPSJO4UZalLUbmY6U9zlKAxNQCmNIKkZRRCEtmAVKyCsWLkJpdiLSyLuvSs4uQmaN5lpwjWzxTnOfjVG/XvFB964LbZEl7di6nhciUY+nOdZoXqmcOCLrbOT8knCPbZXMqbhUI3spzBYh35dxWjqU55zW3SzvB8bgY3zZVyvlf2an+n/M2d/ufA7Ka8z/nZWe/1Trn/8pb/+j4w7T7Bo10CU7CIiaZ0ChQ0IgQaIQb8xBmsCM0IU/cjnBDnqzLQ0xSPhIEIsaUQphTBSLphUhWICntKeJpAg7CI50gERjQ08Uz6A6oaFMBg3IJYhsQE2+Fu7sRkyYZMG26EdNnGuB7MVMpnxwCQaByJ1fgEc8UcGSJ50hwa65BRB3H4c4AcPbyAKOrMc01gNlk/nGBBsdQJGdlw5SZJZ6peRY9Q03N9GyHq3ZtPik7S3my7jlZsDg8ie5Yr3m28uRiz1Gu2nK0eYtMtf05tTp5tnjJsbk+RdpTrFzHbbNlXtpkuXiaK1PdrY71udo+2rxj2bFNqsyXcpsVaffkuQ63OXnptlSZz5BpHqXqQ7L7Bo1sCRp+O0J5Sj7ixaksYgUisckCkyQBiTEf4YkCEQEI4REly3HSbpBtjCkFMIsCSVbwKIJFnMBIdXgaXRQJAUJY6Oqj2AkNh1Nl5OQWwMvLjHlzozBunAHt2sSjY4cEzJtnRKzARDIfLaDlum9SFzo0HKqEsMimgnGGhr5tqWOUVg7lebkAocs6pnKPCzQK5I84MT0DcWnpiE9L0zw9DXHpqWpKT8jQvGQ5HYaynpmORCdPoBev55fQNE9U00yHa/OJ4kaBljEzQ1yf151t6cVOqJmzBHDKua0ON23ZJECja6DLusnV+hxZJwBS7gAgoZckANJclq1c1qYlLpArdud2AV+xWx0uQHNaTpJ5gsr+KEKDf/gmCWyTqAWjBH6iAMAgCiJBYBAvzvl4gUi8ACKGKYwAI1IAEploR7TRLumLgEbUh0FXH0xhHOqD8FCu0hhNdVBZKHXBqbTTdWjY84GL/mnYsjkBMTE52LsvBV06xaJLRwN6dIvH7j2piImzITLGhqhYOb9ym8DELscpKAaHrjIUNAgMAYdKVTjvWNbmJegdALmd4nD2m6AhTgX0OEHDKEEbn64FuXKZNwhIDJwysAkAwkJcBb4Eru5GUST0RAleuqZQSto0CHDbknkNBvq8Dg1RO3rgO45xsxMEmmpRAHC0c15XM6XdEfgCgju5RUBA5ZJMdcP5cl0DQfnO/W52pYgc69Nycx9NaDBXT5HUIEVSCIt4cpYEvgQ6AWJQ6kPAIW4UeCSKcz7eUohYURqseUQlihvEJZ2JNdkVQBIVQAqQ5FAgFieApGYKPBygUNAgMERhZOdCVEk+Dh5MhJenWV1bWHg2Jk00oG3rBHTtnID+/QwYOdKEUWNMGDfBhAmTTZg0zYjJM0y44J/lgIMjLVHw0JSGpkC0+WLXAaJDg0BwgsOtXKUlvwJoJChI3OwMdgPdoRp0OGiKQZtqQNBczUsgK5d5pQbE9W3UskDDxJRIuQ6Qm4Fhzta8pE1UgQT4TXBwtBEoPJ6mHBxAcAQ850uURInr63UoMF0qWZbUJlfzEjjo80xvNNcAoa93rHNytlF5MPV5JKHBR7/TJKjSJICUi6xPkUAmPJIyWfwUaAgE6ImiJAgPkzinBoFHvMCDxVJCIzJRVIDBjhhRInHmPCQk58Eo+7H2YdbVh3gqXQCSkQ0BhricMzcPOOdjxvbt0UhJy4dcFk6eTEWvHjFo3TIenTqId0xAl86J6N7DhF69jejTPxH9hxgxYKgZS1cmwSDKh18Xp9LQFQcBoYqsdKYtbJOfkypEVyL0YsXBOoUTJMr6rwUaVBrxAgV6idJwuAQ7XQdGMSyoEBxBr0NEwYMB7kgPFBQUOAgATSlowa15kgQpXQ/4ErVBQGhKgftpEOGyFpgKErI/pb8etFyvnUM7twp6m2wvwcqgLQZFMTC0lIE1jFRuJ8vFqsPhbOf6FFEJ2nn09lxx1ipsjvbbuZxHPF0pDf6lPxy7r9BIl0DKkMChp0vwpEmApUpbilVTH0kZWs8JFUSigILwMNFlnlOmJQogrINQfRgEHgm5ahpjtCFeAGJMzkeSbKfVPpiyyH4WO4JDMxASlokLl5KxwT0UJ08b1XXFxedg5owYNGsUjg6tY9GpfbykKgno3jURvXsJLPobMXCQEUOGmzBslBmjx5vh6Z2KtKx8FdgKFvLzZMkP6AyHO3mx6tChIPPlwuNxhUaR/LtI0OtKg8C4CRoOIChYUBVIQHM+MMaAM5dDcCM6QQU7tyU8GLDRySm4EBiJc1dDEGYwqmAMjE1Qy1fCYhCfyhpFFi6HxkgbP4yU7KhLaKrCIKnQpeAI+ASEIMJoVG3hiUb4Xg9T+xM4hrQMtb/v9XAExxkEAo79RZ0kizqIs6TALzACF4MiEWVOFnhoUCAwCIHIxCRcuBEB3wDZPzZRKRQWRgkFTsPlui8GhuNSUISq+2jg0Iqn8Smp0h4l66PUOrY7A6Kssz1NAPVIFkJLoKE5oeHsCiCSvqi0RQKeqoFKg252AodJ0hG2Jco0QVKUOIFHtKQukQkaQGJEBcSbJXUReBAciaJCtm7ndxrOYc3aYCxech0HD8WJCimATVRHSGgW3NfHYuniOKxaYcDqVSasXW3GunVmuLubsXFTErZssWDLdgu27bJgw1YLVq4zIV7Ujq1AVxMFmsJwBgOX9TZ9Xry4/iFAKAUNcdXVSv81QEMpDQ0WpUBR1p2gwaCLs6TCbdV+VPymD3oPW4KAyDh11yc8KPGXbzyM7+oMxdfVB2Hj3pOwFxVh1tKd+OKH/ujUdy78Q6IlkC3o3G8+Kn3fD+NmbBQ4JCllwOAPTUhE03aT5BhDsHHPcSSkpWL9zmP4tvYQtO46Q6CTJtBKUPNfVRuAXkMXIdxogsVGdUEwZGHV5iNqXd3mY7Dj4FlkFcmNTK6dCiOzIA9uK/bhq+oDUFm838gluB4Vi6xCuwR4NtLzcnH41CU0bjMRVWoOwib5Gbgv29lbNG/5HvxQfziad5yKILmONLsDKOKp8nuglwUHlcYjDw1CohgeEkjO82miOlIFHKxLMOipPBQwHK4A4gCJWRSJSakSFlDzFTCiJW2JMuSpKcHifSoRjRruwaBBpxAena0gkpyar9IV1jrSBB4pspyaXuBwUUGSLqXL+dPUNF/zrALZpxDHz1hw8lyqpD/5yM5zQKE8V5AoSVGKUxmZ14FR7ASFAIEQskna8+uBxq1rGsoVMDR1oUEjB7FyF5+2YCte/7AtPv6qB2Yu2qGCMV2C0dv3Ghq1Ho+3P+0g3lGC11Oln+Nnuavtuc5P7vCRpmQFhtc+aIsvvu+DvV4+cgwtpQiOSxBgDML7lTpjxabDChL8WPN7n3dG7aYjFEQY5JznOT7/thfmrtiJNAnqTAn8E34BqNVkBN78uD2+rNoXG3Z5I0eugkojPc+GkLhEdO0/D69/0AbvftYJ//qhj4JErmyjKw2eo8/wRWo9rzkgIlYdw0/UTo1GI/DBF10w1W0rjOmZqltVh0N5wNCUxiMKDb6iLkOCIPMWrlIWBRBtmiYBSniwuJks4DBTYdAJD0IjrUj1oOjzmvqQ9EVSlzjV01KAq8HpGDXmFL78YgMa1NuJrduCkakKoUWq1pEux+egL5tdoCaqg87r5Mt+OSqVy84BnJqej4OHTYiSlIZBnimg01KTElhoNQ4NGjokuJ2uMm4ChpPrcGC95FcHDSdF4ezOEGFqEJNsEWhskaBsq7x6w6E4fNpfddkOnbACFT5qIwHfEW9XbI/VW46AoTJ+1gaBRisJwLEqLdCgMQFvfNga78h2zTtMwFVJPTIKJI2VdOO7OgMFEh0EGodUOrNsA6HRQUAxXK5XoBEt0Gg2XLVV+Kg1ajcZJqlOkKRGSRg8dqm6hncqthNo9FbQsKIIHPuRK9MD3n6oWn+Q7NseH3/ZWe2/cPUegQXrFUwzNFVx8kIAqjUYgrc+aYsFK3crhTVy8mq8/3kn1GsxSimsdLtdwFACChY8dWdKQud8hu1xgIYEUaadwcRAksCTNjrbqTgyRZZkSJBRmdwMDw0UKlUphoezS7t4SjZw+pwB9eptQOXK6wQca9C1ywFcuposKgawUMVY8hAakYGAG6kIDM5EUEgmgkOyEBKWraYmc64aW6GPswgJyxHlkirXYJcALlESpVxBQyDgmLJNUxp3hsadRpQ+ltAQV3AoBxiq3QkaLFrGWCyYMn8jXnuvuQRmW7z6Xgv0G7EQCyTwPq3cRUDSWgKynUCiJVZK0PPXNXb6Grz0djMJthGiNMIUNBq1Hi37Nsfbn7SWwGyN2Uu2qxQnzGDC1zV6q7blGzwUNJas24+35Lg1Gg2S5RQERMWgRsPBat93KrZBBTlXn2FuomwOijpoI/u2Uvt//m03rN9xVKABFdxWSZXmyHleersJmrYdgwYtR+DVd5uja7+ZCIqNQ5ZAS1MbLIBaMX7mOjleW3xTs48CS5UaffCuwIgwZDetXgzVe0t0UDj7YwIN7c7LAOI8YcEh2NowbC1wtEDTIMIeCQ4J52hPlbYIPJIIB4LDAY2k9BLX4ZGaBYTHZGH8hKOo9NliVP5yBb7/dg0WLLqoCqpGSz6iEnIwZ+4V1K11BM0an0HLZn5o3fIKWv8YhF5dg3DeJ0VdNwFAaGRmF2CPhxnB4dnIZWqiwKABIZt1DQUHXrMGjGIFom8j7tz1Wq6XAwvdH69CaJEqhN4SFo6eE2domAQa0ZKeTJzjjtfebSoqY6Cogr4S0C3xQaV2AoyWctcfotpeqNAQKzYeUNAYM3U1nn+jAeo0HQLf6yx+JqG+AORF2eZ72fadT1uj0nddccb/BiKMZnxVtQdef785lrrvU9BYtGavWv6hXr9iaHxft68EcGtUbzAAlb7tItfwo6gAUTniVev3FxVBJdEB67Z7KoWRnpcn5zWjW/+Z+Msz1TDdbRPmr9yprvtDca+z/rKd3BwFGvQ0uw3XI2NQt/lQAUsTOW479XO26jwB4QYzMuR4zj0lVBqPHTSYr6dLABEcBIFSGZwvBobzXVib5yhSBp7a3iouqoMpRWqWNiLUGRJmBQ0O+CppSxfEnzofh/r1V+KLzxfi84qL0LbdDmkzaGNC0iTd8IwXUJxEzaon0bCeHxo3vIbG9QOxbEk8zEk2gQU/rKMFO7trL11OxyHPZBiT7Wq5uJvV4fpgr2Jg6C7rigd7Ff+c5Xu2w0vauE/hYw8NrXtV5lnHcHSxFkND5tnVGZ1kkTvwGjz7Wh2MmLwc81bswHMy/48Xa0rKMUoFYu0mg/D0S7WwbP1+BY1Rk1fimVdqo2bjgaoXJMKUJAAZjKdfro1Zi7cIQIYKZOqjz9C5qteicrXueOWdxqIw9iIhLR0L1+xWy9/V6S3LKbgWESV3/Z5486PmGDB6IabO3yBQqivXUEOCehwWr92DD/9FgLTC2q2HVXqSI0A4cvqSqIaeeO71Oti42wsXgsIEfP3x5HPVsGLDfqTl2ZCiUhRJN3JzBTQ2LFi1U47TWo5fX+DWEh7HfBRQ2PVaGho3+2MADagCqKYuNGCUVhilXU8J6Bo4CtQDZwRHhkw56pN1CaYtSU4AUYqDqYxMmYYkpRdg9Vo/VPxkJr6o5IZKny/AuPHeiDHYkSBqIyLeilmzr6FmNS80buCDBnX9MbB/MK5dz1TXTGhcv6GlLKx/cKDWXlEbFwQevB4+F6KrC00ZUWVogKBC0ZdLgHLzz0qQ6JDhlEC9+VkW1joeL2hwTIQOCk1ZcBCXk9rQoeEAi1IayRaMm7Eaf3+hGibNWYcr4VEi9UdIQLWQ9OAAjvtdxbe1euLvz1fD0vX71LlGTFqGp16sLqqgL3wCQlVvSc1GA/Dk81WxYZcXVm89JIHZEhU+aopl7vvx+Tcd8dJbDQQau2EQaDBwX3qzvgR8D1WkDAiPwdfVuuHVdxpiwqy18A+OECD1l/SoPdZtO4xj5y9L6iLpk1zTmi2HwI8cWosKMW/5Vvzz5ZqoXL0rTl0MQE5RPrr0nYo///M7USAzEBpvkBQlX4OABHumpCsrN+5X18b9eDxPAU96nl3gokPDUc+QeQKCrtIbHRpq+oiOCOVdkt2qquhJZ4DJtPQdtcSdoaEkvTiDSgsoCVAJ4AwqD44wdcCDNY9kAYdyUR30TDtw+boJ7dqtEXDMwGefzke9Omuwe28wUiSFIWhOnU1Cj+5nUafGKTSo4wv3jQlyvAIFp9SMPCxZYhSwJCAmTvuaeKI5Fx6HTIgzWJXaUM+fKCBo16bSFkdb2WUFDS47oKB+ljKufjeOeR0mdI7leOygQSCougbBoAPEGRziAg7OJ4lsj02xYMy0lfjbs99j5ORlqjvzzOUb2Hn4tBrD4HX2kqiAbmo9lQJt+MSlAogfULVeb8f4iyS5w/eVNOE7rN1+WKmJzn2myN28NipX7YzX3muAV95tIIqB0MiA28odsq4OvpZgjxelcVVA9eUPnQQk9TBSgMQ7/1m5hv1HfdRDcIeO++HND5tIutQUqzcfVD04HLvRa/As/M9fv0LbbuNxSVRGSkaWqKBlojxqoWLldgok/AsjDNLsdoQlGFG36UA8/UoNvP5eI3W+dt0nItqUrFSIDgwdEM4pyWMCDW1EqN47oqsOBsNN0JB1ztAoDQ4tkFQAMhAlsPk8CB9YS6G6EAhYdHAIRCyiNjjydK27Lz7+aKKojXkCj3kYPvwIYo258g/H1KYQ6zeFo36dE+jX9wp8/NOUQknOzMdhT4u0JaBTpwTs2m1BRFQuouNt2HdQ/nhEjVD5EAolw8kdkChu09wZIHqRVAfD7Vz9rA5/LKFRSmmUzGsgKe0aNFIEGivw16e/xYiJS5Ap0NBGc2Yjs7AAh09dEBXQBX95+huBxh51rqHjF+Ovz3yL7+v2LIZGtfp95A5fBau3HJC7tg3Hfa/i8yrtRJFUxbOv1hQVUR+L1+xSSsNtxXZJgUQhCFASUlNxLTwa//quA16sUAfDJ8g15OdrT5RKcFJV7D92Hm980EjA0RirN3moazjucxnf1+kh5/xGrq8zuvabIhCZger1e+PltyS1eeEHrBeAZYrSIIQIjcmipF6R63jn02YYLj/Du582V9tu2uUp59OeZnWGBmFxEzTEH930pBgamitwUHlIMCi1IW3OXhYazk5waA+EyZQBKODgezFY70jJlGBXqkODB2sf7IHZuPUCPv2E0JiLLz5fhOrV12LLtkBVZGXRNCg8GxMmXIX7phgkpuaroelsmzQhHu1ax4sSMaJvPwOGjIjHiDEJGDfRKCmKBg2VNhEC+vU45qmGFNw475iqddJeHiDu5ATq4wWNrFKq4nZORaKgIXfsUVOWq4BnwGYU5mtDysUzJOAOnvRTwc31rC3QhoxbpCDCoPW5pkGjar1e+NM/KmPlpv1yXJH5Ely8678oauOpF6rilbfrYtHqHSodmb9iG559pTq+/L4TEkTNXJP05ItvO+AFUQjDJJj1oiQDldA44O0jyqCBgKOhKA0NGkvW7lLgeV72eeujxgKAZnjnk6Z4r2Izda4nn/sOfYbOQZRcG9WGz7VgAVNH/E1gN2bqMkSZktCxxyQ8/VI1de3BMfGiNtjbokFDpSfiOiicAfJoQ0OCRVMZHI9RAhAGhB5whAKDQwMEVQi7POkl0ChxgqMEHixYZgg4qDr43AmVR1YOcOlKIlq3XY6PPpiISp/NEXAsQMWPF6Fbt72SulgEKkxTCnHpagpuhGSqeXNaPnbssqinXjt1SBBoGNCrlxF9+gk8BiRi6QozEsx5AjC+K4RFV/lZCA8C4VbOa3TyjDu4+r0o15TGYwUN+SNml6ter1Bg0IueDteeQpV1jhSF0OA4DcLiv/9cCYPHLlDqwllpHDjui8+qtJX1n2OBpBW0AaPc8Pu/VEJlucOfvxqsekiq1OiK//rTZ1iyfg/MklKkyp39emQsfqhLNVAFzwgkCAtCY86SzZLufIuKX7eRFCgFV8Ii8cmXrZQ6GDTaDen5djXAjAO4GPD7vM7ihTdqiRKpraCRbbOjz5BZ+M3/fIJvanbD/OXbsGHnYazdegCbd3uhebvh+Ouz3+DTym1wxv+6xIgNnftOVuf89KtW8A8MU8XUY2f98a5A5m8CmEmz1sAkv5d0O9VGaUhwqvsjDQ3m/nxsnXd97QU5mtIoBofM64FRAg3Nyy6XdR0aqm4gxyU41IhOURl8qnXn7qv44N3R+OSjKfj2mwXo3mMnRo85hlFjvHHkWIwDGpLOqIKqwCarCAFBWRg9Mh6tf4xD186J6N0zEQMHJWLocBPGTDDC1z9LthMpqXpzxAVY6meT61Au18KpAoQDGkph0J3aCAf1e1BTxzzbmXbJ76NEaWgAfdygwcFdCSx40p2AoUNDcw0sutKYPHetkukTZq1S6oLAoHP+6Dl/1G7ST9bXkYA9oAZ3jZ2xUt3NG7YcjAtqnEYSGrUegpckqNdtO6T21d4/kY01Wz1QUYL3/c+aY5WoED6Lstx9D979pAlqNe6r0pMbApcaDfuobSbMXAX9js/h3jlFhTh8+gI+k2N8LvDaceA4AqNi0aL9SEl7qkvKsUalFSxychCXTWCwabenqJiOSp3sOnwSpy5cxQ+iiqhUlqzZCbP87FkFombk+MPGLRSF0kylNSExCQINjggtgYTz/OMDDXHtXReEhxZkxdAQZ+qhpR83ewkodOWhqRAdGjo49MfhCY4cUQInT0eietU5eP+9yeg/cDei47OQI8onQ4DCYijrHnrviwaOfKxYlYi2rSLRoW08OndMgNtCM3btS8HOfak4ejIdkQab6rKl80E79Vg+VY4DjJqqYvCLy1RTIpo7qw21TTE0HCBVbZo/1tCQYLjtMHKH88Es/fF2Pqty6uJ1rBQgnLoUoO7wutJg4IfEJ0rgnZa0wwMXgyLU8PKTFwPUwKu9ogA4sIvH3ON5VqDggcshkWrQmPakao5AIR3bPY6r+oJaJ8dl78iGHUew58hZJIl0jU9Jk/kzohY8cebSdZWa8LkXPgHLegR7QbbsO4Yte48KMGIk5ZC/nUOnsGbLAVwMDEVGvgS6evQ9R7bPVQ+o7ZZrpiq5HByJs/43sHGXp8DEC7FJFgUlBj89NE6OveeouJc6rmovAwpnf7ShYZcAzWRAaeBQkp7zTsFV/JYtWdYLhmXdWVk4t2ntGkA0xSHHFHBkWwFTci6mzzyKr76ahzXrL8myDVFxVvFcRMbmqu5XU2oBktMFJITMmVT07RGF1s3j0L5NPIYOixOJKP/IAoNEvnEsyYZok+YxZhvik/icSx5M6XI3IDyYHhEg/Bnlesq6rq40p6KQKddRXdC5jTh/DwSp9gRtgVJcj6PSKAuJ8pxqQ6UqAg/e0S25uQoYbNPfk6FPk625st6mIJCYoT3WniIpAvdhG7fhfIoEONdxmeAhILheK0Rqoy3ZG5Iix2LdIt3Ou71VjcbkEG7V9SlBqb1fQ4MGUxTCgL0b9FSZ15epLtLs7CbVBnDpzuHjGZLi8GE2jr9gUVUti7O4qtctVNeqrM/Kl7SY28q62wGD/khDg5V/BpR2Jy5xlao4lIHurE1or+S7e7dKcFkFFgSG3sZ5Ho/1FL+LBowYsR/LV/hi565AbN8ZJB6KHbsjsGlrGHwuJIsSYpqSj3nz49C8UYQAw4CO7WOxbXcSDAILjgfhS38SkrW3iPEBuSijDRF8v4dJ4CMwMRAeqXzCVtQHUyT+nHIderpSLkA4dbieshQvy8+VmZsvLtDIe8ygcZdKg66pDQ0anFJ1MNDLQkN3bZ0+X/pdGuW5emeGCn6HCxjUe0TFCQTCQD3eTjDIMuGh1zGK1zmmGgy0R92dvfRLdW52AkhNxVMd07LO9XcChbM/8tBgrwbfqMUHxji+QqttiEtgp0ubDg3WJHRwOEPgji7bllUo3F+DRwGCgpPg5RUKr6MR8DwWKR6NYyfisGlLGFasDEZwZCaOnUpB967haCkqo03LOEybHo+gSKG8gE0985ImaiONLwrS4BGXlIcokx0RxlyBhygXgUiMKJD4ZFEfAg+Vugg8+MYyrebh7KUBUm56Isu60uBAsseuEEogsGZxi7qG7s5FUQ0UupfA4VZeHiRKO1MTDSyEgpo6YKGmZcGgIEIVoqkMAkG9v9MBDLWtAxQ3uzMoCAkNFCXL2tQZEs7Q0BSHlpIQCPTyYKE7t3tkH41nTYLjIag2UtkNKoHEmoP+Hk92lypwKHhIuwMghAfX36vyKN95Hdobt3hHZ42F3a1pojB27Y7DypURGD0qCnVrhqN5kzh07hgD75PpEvDaS40JDA5X5ysKjTo8JK3hO05jkwmPPIGHAESUBwFCmMRZ8lTdw+wEj1RrgQBEXFIRPT2jp7FdPF3WMVVR6QqvlSCRdoKD3215HIzQYPVfTzvo5cOiBBh0XWnorge+BoebFUb50GCb/jYvzmsv8NGhobu+rL2KzxHgKj3RnPBQ6x1A0MGi3nyuAML9nKe3gkaJEwjatDQ0FCQc7brSUNBwzN/KS5QGh5g9HLt/0LBrxUaLeKpyCRi6QITAUIVRCWIFC5l3BkcJPDT1cc8KxOHcR6+b8FwWARRHjRIeoZE5cHePw6QJ0Zg00YjJk41w35iMiDjJhWU9gUFYmAR4Jgc4EumEh0zVi5EJDwu/7cLPMGjw4DTabBN42GWbfNlfUpesfDlmPlIJDoenK2AQIo6pggoBorVxW9Y3Hhdo8BsmmczdxTlV83JHpGfmyrLDMzh13kYCwHk5y063K8+0aa4v395L9nP27OJ5WZ+nHT/bniepYX65np0n+4jnOLzUcr7sl192qs/ry3Ic5fo6J89zclm2OjxXts+Vcyt3nr+F22QbvintYdn9S0/kDp+UWqTGTmjQcHia3GEd4NDgIZCQoNZhodTITQDRXIfHvQBEDa7i8cVVvUGOzyHj7PkwSGBHJeQiWoI9xmBTtQmqI6Nco3oBsgMURoKD9Q3HsrMb5GeKF/URI6lLdFI+ogQgEax7SPoSZc4VRWJDgiqaCjwyqT7yVddtCiFCSNAFDrrq0BUJVQfHbPDrby5z2S/Z7p/SkGDluzDU0O4y4CA01HdL6GqesCjPSwCit2n1j7tXH8UjMmV7OuHB+or6kpukIRaZqqdlBRSqfiHXzPqFrih0L05RnNqUC0w4TZB19DgLv+mSj0jCw8S0xSppi0ApmQ/M2eUYeZK6aAAhONJyxLPzRFnkqXmVyjic3a4uaLjsl273DRocZGUSpaE9vi7gkIBKkWkxNORur01v9tLgoOttJQrEufZxO/Wh6hkEBtUKgSHbqZqCTNXnFTgMXa6L7+sgFNQnFRyvFFTz5YDC5ORl1xlkezo/DhWtiqZMWayqtyXK0eMSL/Bgl605PU/gkScAs8u12CVtEhd4aJ4vSuPxSU9c9vjafYWGUYeGgICBybdnpUhApeqefi/gEBdVoBdQdVfwyNEUCZ8JISToxdCgynAARn/MnsVGgiNV1rG+od5PKoqBqYmJqYlcG7tatTeky1Tand0o4NPcsczUxaE4jHLtajs5Br8uF2vJkxTFLrCQVEiAwZSFHi0eJ6mLIdUu8LHL70jAkSWwKIaH5Ou5kpu6oOGyX7jdf2hI8KjH1mWawhpHsWsA0dSHgIIugad5CUx0OHCe3zOx2qGmHMTFAWTK8+B4vyeKUxFO9dSE9RW+B5TXxHV8fiRTvKQXg/CQaxEFY+GIUTl+Sg4EKuL8OTJQrDgs0kYnNMyybZJsmyTb0s0ybxJ46fBQAJH9jOrjUPwspQBEPNoZHkm5iBWPF4AY0wQemXa5BgLELoAjNBy/0AdgRUWFyM3NQXZWJnKy6VmOafluteYov6k9J0sdx26zIteaXWpdfp78o7jssbb7Bg0+kMYPGiULHCwOLxcapVzaHYXSsk5wGCUqg0JiBARAeGQiLl0OwuVrocqvXY9ASFicbJun6haZhEoB1LsNgsNiceqsn8ArV3XBKtUhikMNrJKp/E9tZ5dpBoGQYkNIjAnnLwfj6JlLiDBkwizn55fhvE7749KNGJgFbpHSHhaXgrB4zSMNGZKaSPBn5IsXgJ+kTBIVw+5XpjJUMAlp/JKcAITqgyNVzZK+EB6SxnDkqcGSK+omF+a0PKRnP9gu14KCfCQnJSIhLhIGQyyMxgQkJsbBEB8FQ1yJJ3A5PhoxIdeU68sJss5sjIfREIPgwGu4eOE8wkKua/s5jpGdle44m8seV7t/SkMCMtFcgKRkURkpOjjkTn5baGheUjAVV1OmF0CYgGLi5Ok46n0O3ifOY9Hi5Zg5ax5mzp6Hdu07Y/bcBUiSgKOiIDiOn/HF8dPnERwRg8HDRmDrjt0wmFOx1n0LTpzxQV6+gEL8xGkfzJJ9p86Yg0mTZ2DMuEkYPGIk+g4cglFjJyEgLEGpC6oG96370KPPIOw+4I0p090wfNR4jBwzEcNGjpNtJ+Pg0TNO0JCfn9DIlKn8DGZxk6RkRn2wmMAjPjlPYGEXtWFX03iqDvEEAQrrHfkPUGoQGpZkIxIFGDGBl3Hj4BaEnfdCYkJMKSdMYm7448rOVbi8YwWib1xSbRYBzhX/C9i+bQs89u/G4UMeOOp5EJHhwTAJfLhvdrbINPUSPpc9rnb/lIbczQ1GCZIkcQEHv4KmKw4FjjKgcHYdGrryYPpCaJiTc7Fg4QpMnzkP585fhtuCJWjQoAEaN2qC6tVrYeWq9er7JFkCDb6Yd/nK9ejWvRcsGTlYuHylgGMkDnt5o3X7DtiwZYf6U86XmNx/2AvDRo3GxKnT0LNXH3xe6QuMHj8Ru/d7wPvMBQlsDuwRaKTmw/OEL0YIJA57n8e2HYewZsNOuG/ZjfkLV6Jp85aYs2CZpCcCDFEmOjRKnMvaqFEztxHlQk8UeHDYeoKkLvEslIrHipskXbHzAh+QERopKWZRBJG4cWAzjo1oA78VUxEXdh1GR9DTTSYDIi+fh+/KaTi3cAwiLpxEksWMwOtXsW3LRmze5C4qwwehITdwSabRkaEuaPyK7L5BgwO24hPzRW1IXi/gMCdLwFg01aFSlnJgcStPFYWbLMF16XIo9h84ip27DmDJkjUYM3YC6tWvh5o1a2PIkBGYM2+hnDNdVIaWavhfDVbQ2LRlO2IMFpz1vSyKwg19+w9CSGQCcmSbbL6+T9QGUxTaWd+LaNKsOS5cCVDL/HPnOj5OHxmfioECnhNnL2HLTg8sWb4eC5asFgDtxpUb0Rg3cRoWLF0jKYqoCaZTDrXBD19rwHBAQ4FDdwKE40NkWzXiNE+Dh6QvHDdiz3+w6UmKBD/TiGDv/Tgzewj8BAzhfie0VEUUiFIaifGICb6KoBP7EXrWE/GRwbBYTNiy2R379u5SioPwSTInihskXdH2c0Hj12H3ERpF6vOJ/GSiIUmCSJyqg+AoVhwChLuBR5r83ZlEui9fuQEDBg1V0OjRvQ/q1K2P+g0bolbt2mq+UZNmCI0wQH1NTTwzNw8LlyyX9qYIizYgLjEFHTt3w+Jlq2CXv+NcgYHv5euYPmuOpBjjMHbCZHTp1gNVqlRBtx49BQJTpX28pB0TZP9EtX/NOnVw5NhpNG/ZCu06dsWkKbPQsFFTrN+wGyNGT8RCgQYVCQulqggqnuhIS25SHMplXgeIzJuljdtyuHqyACWv4MFCQ0tP4gQEoYgQWERcOIWIS2cQFeAHQ2ykwCMeRiqNKz6qzZRsgknakkwJWLlyOU6cPI7k+EgEeu4QoByBISa8lEpxQePxt/sGDQ7YiojPUx9ujjMVIF7cYBZwSKpiFnAkWSRYylUdBQooztBQ6YpMT5+9olTCwkUrMKD/YLRr1wEtW7VCo8ZN0K59J7Ru216gYUR6FtSby9mrEhqRgD4DBqKf7Ddk6Ej06NkXIRHxsBaIguDTsJdvYNqM2Rg+YrSqZRAaX1f5RqDRC+MmTcEogQZhEhFnUvWQBnKuw8dOonW79nDfvEt11fYdMBRr1m3HiFETBBprwcfpVdet/Byq+1achVDWNRQ0BAYl0OBAL8d8Vp4cL8+hPuRnzypE/kOABouaDHSTKAWz2YiE6DBJR84KKM4hPiIYsSEBKj1JiJa0Q7ZRQIgKwfplC+G5YyPCju7C2bnDcGH1TNn2mqZSXND41dh9gwY/chQcnSeSPh/RhgJJDwoQZyxAggMeVB7GJAkuSVsURIprHmWgodo4DoNqw4ZZc9ywdNkaDBTFMXrseAweMhxdJdAnTpom0OiAoLBE9VAaocHaBrOOPfsOoWLFinjn3XexaOkKCCvAl/KkWekCJY7IFOe3Wg96HUf9Ro3g6X1GqRGO0kzn5xRk+2hDkoKG1/HTaNq8uYCjg0pJ6tRriFXrtmHk6EmSnqxVYzy0z0ZqtQoj3VG/IDzYm8JRoQoeMi2Bhl0VPzlalKqDT8nmP+DeEx0aepDTmY4kSlvkVV8Eeu3E5W1LEXh0t4DjHMIvnBQlchpxojp2rF+Bkwf3INRrB/y3LEHQcQ8kRIUq5eKCxq/H7hs0+M7O4Eg7wqJsCIuxIzLWjigBSIxB1Eei5O3GfAFIngAkH4kCD7opWXJ7hwLRVIgDIKkcqwEEhxrQpWsPjJe0Yez4ydi0ZS/WuW/D8OGj0a/fYHTo1EWOl4NUSU2ybEBMQgpWrHHHj63borsoh36iOFq0bK3Sk4hYI+TGjnR2wcqUUOCIgiMChPqNGuPYKR8FHG6j3AENAuXEWR8sXr4SQ0eOxtARIzF5+iycv3hDrmkq5i9erQqbVBkEhsGSVwwPTlXqImqKXbbq+y1UH0xdVHoiAMmStEQ8SU7I51B+DmjQjZJ+xIUH4vKWxTg1rR8C9rmrHhSmKNEyNcWEYd3aVTh2xAOGYH/VZkiIdnTB3rmmUZSXK/sewMKFC7Ft5z65gaSp9sy0FJzw9kZoVJxa/ikWFhSAk6fOSHordxGXPTC7b9DgWIhogURETK6kA1aERmoeHmNFZFwuohPsiBWAxLHuYcyT9EVAQoCIG1WPC1MZTYWkyN9dnCETEyZNR7MWLVG/QRN0694bbguXYeHiVRgzdhJ69R6Azl2747DXGSSl2rF1h4fqhm3fsQumz1mAqzci5dxGLF2+VrbroVKZPR6eChj8vEKauFX+tg94HkfN2nVwxPsUZBX47RYOACM4IhNMqFajJk6e94M5M0tSrxRxCwIjorFg8XJV21gsx+czLGqIuQ4KAUcxNBzOoqd69J7QUGmLpi6YviRLWpLEzzT8nNAQtUHVEHh0D/w3LUTwyQOqxmGS9IV1Du53wGMf3CaPxuXzJ5GZkapqHTeuX0FsTMRte08yLAb07doOr736Cj744AO8+vLLqNOoJa4ExSDkmh/+9VlFzF622bH1v2/zJwxD5W9rwf96mKPFZQ/C7hs0+MJfg6lQgJCPqDhRG5E56puowRHZchfJQXh0rtztbQIWUR4J4gQI1YcAxGCSOzMLqAogVB5FiI3PwtbtB3Hs+AW4b9wtoJgqymEo+vQdjL79hqBv/6EYMHgE1rrvVE+x7jtwHDNmL8JZvwD1Xgt+REnUP/jpxktXQrBw6Up4Hj+rRoaq4eTiVBMsjE6aOhMXA4JVoVS9KEeAwn0NyemYPc8NN8Ki1VuocyQWOI0TeIwcPU75hatBsMgKBr7eI8LUhIVNI1WGuA4OlbowZdHhoeodAg3C42eFRqyqccQE+iPi4mnVW6LVOHyKtzGJEgnxPwev3Zux0X0tNqxfC/f1a7Bj+xbVBRsSeE2pjrLQKMjPg9vEgfjjH/6IYRNmwVtUxZL50/B/v/8d2nYfhkvnT+DJ//tfDJ28WG2fZjHhyCEPeBw8LH8nJtVmNhkQEhoOqy0fBaJYIsJDYUjU1lmz0nD6+FH4BwSiX/tmeOaFt3D6wnW1Lio8CB779+NqoAsi99PuIzSKJPipFgphNBfIP7hdVAfVBsGRU6I8om0qdYmMt0k6YVfpC0HDXhcWT1kD4SAxHiMpRf6IJE1JTgUCAg045xuM0+du4PTZ6zhzPhC+F8IQFJoEfv/ELKkOH83nyFCL/N2ysMjA5DDxHFENfMmwRSiRIoFpyS5Q01RRFCahSqQhWYLXhnS7KBAONRdo8DV96VaBWlK6ekZEb6OnZOchKCJOpS/pAheqllSrnEs9EKeBgD0ipjQqDA0cdEMqUxctfeEyAcPr1AqlfKcGaxqOX+gDsHKhIakFi52xoQEI9zmOhMgQTV3ERSHq0ik1CMwo6xNETUTKcmJkEM6dO4O9e3bi+DFPXLtyEUsWLcCliz5INhtugkaGJREfVXgB739eVYBd0u55YC+8T57BJZ8TeO6pf2DS3NW4LlCq8f03qNegMRo3rIsadZvitO9FbFo1D3UatEJIbBpSE8LQtnkjzF20BjnpyRjeryvee/9D1G3QEG+/+gJeqFARlwPDcXj3RvzwbRV89+23+PKrr7Fi417Y8h7ei2oeZ7tv0OCr+LRuVrqAQ5wQUfAQUIRF5iJU4BEiCiQsKhdhApTwWLlrxNkldcmXdETcWKAAwtoHPVGOZTDnKRBZJAVOlb9HVfQUT6PLMtuNeg+NQMZkkfPLvP7qPgalenhOPWdC5+Pxmqu3iwtkqCo45YuFCQ0FDgc8hC8CCk2B6C8JplqRWTVsnfN8QTCHp6uX6wg41AesBQJ8H6k2oIuA4Bu+7AILviZQg4dRpnx0Xr31XCCTIuB9kH/XZaFBdcGUhOM0Qs56Ijb4mlIUTDUiI8Nw5uhB+B/dB0NUiOpNibxyXvaLhtEQp+oYHK+RlmLCelEcly/5qm7ZstAwxgTj6b8/ido/9ix3tOsVAdWz//gHxs1chhuXzmL4iFE4cuwUpo4ZiN/99r8xff5SzJ04AH9/9i1cCkmCOfwK3n/1eQweNRUeW9fiqb/9DX2HTcCRw4dR7atP8fSrH+Pg/j2o9e3nqNW4Dbbt3I3mtaugwnv/QnBkvOOsLvspdt+gkSvBxIFcHJdhliBWI0MVPCTwJf1gShIRLWpDwBEWTuUhHiXLKm3JQ3RcnigPSVkcaUucpC1xDngQHAazHQniKo2RYxIoWo9MIRKpbnguR13EKNegPIUpAoOX8OBdXXssnuMh6Exril2CXIFEwMHUhQ+1KYA45vWH3XTPkLbib5s41vNTBdobumQfOU4K4ZTOt4fx3BzQxfdrEBqaExiJsswnX/nWr2RRKQ9jnAahwcDnGIvAIztwdt5IXNu/waE84pSCmDplMqZOnwr3edNwbu08BB3ZrtQIC6YEBsFCaPicP4M1a1bhRsCVctOTFGM0Xnv2KfyrWtPiny1fUozdW1Zj9Vp3+J7xFqXxFMbPXo7QAD+0b/MjOnTqjuaN6uGvf/k7ps5ZiEUzhuOlNz7BlQgLkqMDUOn9NzFu8ixMHjkQTz33Os5dDlHHnTS4G15/+zPMmzYB7735Ct775Au0adMOX38hMHn2RZy/HKi2c9lPs/sKDdVlyru63OWTCQ8JalOS3EUlqDlKlD0o0bE2hIvqCAkT1UEPt4r6sGrqQwASKQokKt6qCqfRBi19iTPa1XdZ6XF8L6e4KqQqF2UiIKFrcGFKwZcCC1h4XgEZXQFEuaZCzCxMMoVgeiBTfguFrmAiwas+U5Ct1T5KQcThfD8H2/TH7nV1or5lK78LBRduQ/XCtEUAwhSErwM0ynmM6VQaTFm0tIWjQqmKHhY0VDepTIOO7sHpWUMQINBISTbB1+cMBvTvixbNm2PBooXYMH8a9o3tjhs7Vwg0rqsxGQSG2RiHo56HsGzpIpw/K2kLlYvApCw08nKz0bt1Xfzl789gq8dJ1Rbgdxyvv/A0GrfqLunJSbz47HMYPGYapo/qgwrvfIhDJ09hqcDqb3/6C6bNW4JFM0eK0qiAi8FGxAScEwg9ifFT52HZ7Mn421//gR0HT6nj9mrfGM+++hHWLluAj995Hc3a98Gx46fgvmYpho0Yg+h4o9rOZT/N7hs0CkRW2+xFsItzapPAyZU7r1WCh4+q654jQZQpaUG6BE+xZzpcAisjK0/W5yErO1+8UHPZJyunAFlyF1ffdZWpNl8gaVFhua4+PC3nvvlDTLrLtcl18tF7NeWyeK6dg8Tk+nXP1z45qbtdgtomP6udP69jenuX3wn34f5yPB5bd/UhKLkW9d1ax/U8yJdK31TTkCCPl/Qk6pof4gQITC88jxzAlMkTMX/ebBw9egQeOzZjXM/22COBlxATKbBIQHhoIJYvW4wtmzfgir+fgs/tek/Cb/jh+399iKeefgFffvkVXn/lBTz38lvwPn8NV32P4x9//SsGjZ6GOeP64/d//At69R+EJnWr4jf/778wcdZSHNq5Dn/43X/g48++Qp0a3+GJJ57AiHEzkRAZhK8rvo8XX6mAuvUa4vmn/oK/v/wBzvlcxNiBXfDOex+gxY8t8V2Vyhg+YR4y+GSjy36y3TdouOyXb+UVQvWRoXxIje0HPfZi/97diIkKU4/C84nWUSOHY9NGd4SFBiEtxYw1q1eonpPIiBBV/LybcRoRwdexfPF89OvXF5OmzYLvxWuqPVXUzc4dOxAQFA5TQjRWLF2onmTeuXOn8qvXQ5CVkYpNa5Zj+MiRcN+4Ce7uG3Dez1/tf83fBxPGjcHk6XMEYpuwY4+HpIRZSJHrWr96CYYOGYzZ8xfjRkiU6wVH98lc0PgVWXnQcHaLBJrH/j3qobTMdIsCAp9iPXHiKM6eOYFQCfyMtGTMnDkNR70Oqfmyx7gVNHSz5uTcIXhFldlE/pVj1twSpcC3neuWl2dH3i26nXLkfC5U3F9zQeNXZHeERpIB58+dUt2pfEcGC5tsj5YU5vTp42ogF0ExfdoUHDqwT6mOsse4EzRc9uibCxq/IrsTNJhm0Hfv2o4D+/dK6mB0FD3jJT1ZD+9jXrBmp2Hq1EkqjXFB49dpLmj8iuxO0KCnyPrTJ72xaZM7ggMDFDBSLSasXbNKjdS0WTMwY7pDaUh72f1d0Hj8zQWNX5HdDTT0ouY+SVG8jhxSEOF4DM/DB3DAYw9io8OxZPFCnDjmqdaV3d8FjcffXND4FVkJNKJuCnbdCRTCwFugwHEYVBoECfdZtmyx6o3YuGE9wkJuFNc8nN0FjcffXND4FZkGDROMfEDNUb8ozwmDiPBghIcGFbexJyUo8BqOHfVUU27DeofzfnR+xsBlj7e5oPErs8LCAgWPO3lhAbcrvS27OQsLC9UxtPWl99G2eYCj01z2izAXNFzmMpfdk7mg4TKXueyezAUNl7nMZfdgwP8HlekCTwo/YaUAAAAASUVORK5CYII=;" vertex="1" parent="1pD8eMZOPtD5a8AL9G_5-5">
          <mxGeometry y="50" width="160" height="70" as="geometry" />
        </mxCell>
        <mxCell id="1pD8eMZOPtD5a8AL9G_5-8" value="回答/推理" style="swimlane;childLayout=stackLayout;horizontal=1;startSize=50;horizontalStack=0;rounded=1;fontSize=14;fontStyle=0;strokeWidth=2;resizeParent=0;resizeLast=1;shadow=0;dashed=0;align=center;arcSize=4;whiteSpace=wrap;html=1;sketch=1;hachureGap=4;jiggle=2;curveFitting=1;fontFamily=Architects Daughter;fontSource=https%3A%2F%2Ffonts.googleapis.com%2Fcss%3Ffamily%3DArchitects%2BDaughter;" vertex="1" parent="1">
          <mxGeometry x="290" y="480" width="160" height="120" as="geometry" />
        </mxCell>
        <mxCell id="1pD8eMZOPtD5a8AL9G_5-12" value="" style="shape=image;verticalLabelPosition=bottom;labelBackgroundColor=default;verticalAlign=top;aspect=fixed;imageAspect=0;image=data:image/png,iVBORw0KGgoAAAANSUhEUgAAAQ0AAACSCAYAAABfVZ8qAAAAAXNSR0IArs4c6QAAAARnQU1BAACxjwv8YQUAAAAJcEhZcwAAFxEAABcRAcom8z8AAHLbSURBVHhe7Z0FYBzXtf7T/2vfe33te6W0aZjjMDtxmjgOmZkdMzMzM7PMDDIzyCTZMtuSbMsgW8yw2l1pxdJqV/T9z3dnR1rJMjW2Ezt70tOZuYOSdX7znXPvzDwBl7nMZS67B3NBw2Uuc9k9mQsaLnOZy+7JXNBwmctcdk/2WEMjNzcXFosFSUlJyMjIcLS6zGUu+yn2WEIjJycH58+fx/Dhw/H999/jiy++QKtWreDu7o7ExETHVi5zmcv+HXvsoBEfH48hQ4bgb3/7G/7xj3/gzTffxLvvvosXXngB//M//4MffvgBR48ehdlsVgokNTUVRUVFjr1d5jKX3ckeK2gkJyejefPm+M1vfqPg4OHhodKSwsJCREdHY+DAgfjtb3+LJ598Uq2vWbMmWrZsiRUrViA8PNxxFJe5zGW3s8cKGgz+J554Ak2bNkVCQoKjVTMuz507F3//+9/xhz/8Ac899xxefPFFPPPMM/jd736nFMm2bduQl5fn2MNlLnNZefZYQIMpxqFDh/Dxxx/jo48+QlBQkGMNVCF0/fr1+OSTTxQcWN8gPM6dO4crV67gxIkTGDNmDF566SX85S9/UXWPgoICx94uc5nLytojD42LFy+ibdu2+H//7/8plcHiJ81qtcLHx0elH2ynshg0aBBMJpNaX9a8vb3x+uuvq+0IE5e5zGXl2yMLDaYRrFm88cYbSiG89tprKu1YvHixWn/8+HE8//zz+Otf/4qGDRuqZRr3o8rYvn07/Pz8SqUjbm5uSo2MHDlSdde6zGUuu9keWWhcu3ZNqQJCYfPmzdiwYQN+//vfY+XKlWr9woUL8eyzz6p23aKiohQQWL+g+uC+EydORExMjFpvNBrx1ltvqfUsnLrMZS672R5JaNjtdkyePBn/+Z//idmzZ6s21iL++7//WxVDabNmzVJjM2gpKSkKLByzUalSJQWU6dOnq65YwqNKlSrYt2+f2u5f//oX/vd//xeBgYFq37s11lXYAxMZGanGieiWn5+v1mVmZjpa7o8x/SIEw8LC1PGdjb8f/iys5+jO7XXLzs5WPU3O6+nsgna+dpe5rDx7JKHBwHzvvffw9ddfIy0tTbWtW7euFDTmz5+vulR37tyJbt26qUInu1vHjh2rgopGtTJ48GA1hoM1kfbt2+PVV19VCiY0NFRtcycjFA4cOICOHTuqIuznn3+uaieXLl1S6+Pi4jB06FAsWLBALd+L2Ww2lUJduHChVLrEY3MsCou6H374ITp06IDDhw8Xjze5fPkyevTooX4e9iQ1a9ZMdTd7eXkpwKxZs0Z1Tbdu3RqdO3dGp06dFGCbNGmiisYuc9nt7JGEBgucTEX69OnjaLkZGkxT/u///k9BgMXQTZs2qWBm+sFAYQFVt1OnTqkg+q//+i+lPBiMBoPBsfbWxl6WjRs3qvNQnVDJEBo8xttvv63Ac/36dZUGcVzIvRrHmPBaKleuXKwmfH19FTB5Dqqm7777Tp2b17Bnzx41JoX1Gq5n+1dffaWu6c9//jP++c9/Yvny5Zg2bZo6BkHK7eivvPIK3nnnHUydOlWdx2Uuu5U9ktA4ffq0CnDewXVbu3atggbvorQlS5bg6aefVorDWXJv2bJFtTNIuE7vnuVdmmqAgUXloSuF2xnTg5dfflkFLM/LY1DiE2b/8R//oVQN0wcWZKtXr64Uw7Jly7B169ZS40hu3LihIMeUijUY1lgIDKZUVD0Mbv48rLk0btxYBTkVElMMGkHA+g2VAtOQ3bt3K1XFAjBVVXp6uioQc78aNWqo1CUiIgK7du1SPy9BevDgQfW74EhZl7nsdvZIQuPq1atqmHiLFi0cLZrSYFDMmDFDLS9atEiph/LGXDCVqFChgrr707mvXnNg8FLFdO/eXeX+tzICgkHHc9auXdvRqhkDj9fh6emplAZ7eBj4DGLe8bkPVQ9TDm7DwisHmVEV/OlPf0L9+vVVbw+7khn8vB4qjr1796ptGejO0KG6IAx37NihIMGUjPv9+OOPji203iSel8pEt4CAADXAjeNbXCNiXXa39khCg3fzWrVqqT943qVpBAnTg08//VTdrQcMGKDydL1+4WzM81lI5d2W4GGgMuBoDECqAo4cDQ4OVm3lGWFEZUDFw3rBrYz1BXYH8zkYqgyehyqHd3deO1UHaw58HobKoVq1aiq4qRYY1Bw7wrSB66kGCBcGvq4yWACm4iKkli5diqysLAUzQoOFXqYb7CFiisPjjh49Wu1H8/f3V6qq7IC4n9sKbTbkWZJR6Bqd+4u0RxIaDGwO+eYdmHdl/S7JOgTv4N98841SIt9+++1NcpsQIVxGjRqlls+cOaOeRSFEdGOg/fGPf1SFw1sZocF0hmkIi47ORoXCMSRMcQgzphiEAY3jQlhjYYrE8SIs5DK1YmAznSFM+OwMFQivlSNZWZPgz8H05qmnnlLLeo2DP+/777+v9mFvEh/YY08Qx5sQaFQldAKEcGNhVrdfKjTyJTVL2rAWyVvc5d/a9TDhL80eSWjQGETMz3XJzTuxbhzR2bVrV5WCUEmweEhjNyrrDRwENmXKFNXG4KQK0NMa2urVq5X6oMy/nemSv2LFisW9OLQjR46oIiRTHAYj6w1URjQChQqIIOH+8+bNU9Diz0JwMQ1hTw6PwW0Z0GxjlyjPQeVBoOk/E1Mc9gIx/WHqw7SFBVEqDfYu8Rx0wqvs07y/PGgUgclkgfxMhomjEVzxTaTs3XXTdbvs57VHFhqU53rOz8BlkFM9hISEOLaAUiMMRkKFd1kqDDqLl7eDBp9FoYrhcym3M97tdXCx25NpAXtTvvzyS3XnZ3GU10N1oCsNgoC1FhZHWYfg/gTM2bNnFRT047ELlUVNKgSmJDw2VQqvTQcle4TY3cv0hG08DtUWUxsuM+25nVEJ8dhUKvc6LuV+W3Z+Ia6n2JArgCgSaBhnT8WNZ/6AsCqfIG2fCxy/JHtkocGeCxbwWC/g3ZpjMhgolO7sFdFftjNz5kx15yYoGHCU50wPODKUVhYavKPzzs47Os9xJ2Ohs06dOurcOsAYvAxkAoJ1CaqAevXqqe3Z1qZNG1XXoAKYNGmSAhRrDuwKJiSYVjC9YQrEYiaPyboGu3AJKtZrqDbYzn05jL5q1arqmHp6wnbnQmh5xnoLu6Q/++yz29ZvHrTZCoqwK8aGJUFWsIpRlGuFcdZkBL72d+UER+renShypSq/CHtkocFuSeb7HNxE1cF0hYAgHBhMDCKmARyP0KVLl1JdqATMiBEj1LwODdYnOFCL7dyfNYa7ff6EgGKvC5UO6xIsdrIgSeO1sVjJp3BpVAvHjh1TbQQAlQG7Q9mFyq5TqgTn93swsNkTxJGvOgjZhczUady4cQqEnCfgWFRlLxDneQznlK08Y0GZyoj7O6dXD9MIDA8BRrdz2Zh5LQe2wkIU5efBOG86Al99EsHvv4QgAUfo1x87wFHo2PP2RmXC2hddt6IibbmsO5vzfrrfSuXw74UD8Dil6fsWFJTev6xzvbPl5xeodmfTty1rt2p/mPbIQoPjGDiSkXd1BotulPlMFXh3592bRUa925V5O4OaNY3x48erNhY7WZRk/YFBz7SCCuZuVIbLfprZRTl4xNrQ53w22p3OxsTL2UjI0nq7LBvXOqDxogIHFUdoFQHHnu13BQ6mpoMGDRZFOVqpr7CwcFF1kwWyYzFhwkQMHz5COZfnzJmLhARtMF9ERDiGDRuOIUOGyg1kpIB5PGbNmg1//8tqPY1PSi9atFjtT0WoQ+Py5SuYNm26OufgwUPl/ENuch57zJhxcpNZVQzqHTt2yk1qMq5cuaqWeWNhTxuPFRoaptp4M3BzWygq2k2N1/k57ZGFBk3P3Tn+wXkAF+f5jlB9VCdTjjlz5qiCJbdnfUEfEcpaAWsOlPNcxzSCvRQue7CWJ3HvEWdHX59sdD2bjS7ig3yzccakQSP7og/Cvq2IoLeeUdAI/kADR5gojrTd21BUzvgbZ1uyZCmaNm2Gtm3bqa71wMAgdO3aTVK418VfQ/PmP0qa2lrS2zckJXxf/l581H7BwSGyXXd069ZdbfPccy/ITeRTHDyoKUWmt/37D8QLL7yIunXrw9fXT7XTtm7dJjerV/D111UwevQYTJ06DZMnTyl2Lvfo0Qtvvvk2vvrq6+Ib04wZM9V1TJkyVQGItaxq1aqr7Y4e9VbbhIaG4I033sR33/2gFOLPaY80NDjSkc9PMNjZ9Vj2bV009kJw8BW3oaJgd6rzE6xMR6gu2NPAl/OUdwyX3V/LE4VxKN6OPg5g9JDUpLs4wbEqVOS+yPwCSe9YDA187SkEv/u8AxwvO8DxEVI99qDwFmkDjaNeGeD892TXNZ01oapVq6NSpX/h+vUbiI2NRePGTfD551+omwwtLy9f7cu/LXbHM3AbNmys0l+qlU6dOitgEDhBQaXrQLt27cbbb7+rQHX06DGVEvv4+DrcR25GF3Hq1GnUqlUH33zznUBD+zs8e/YcvvyyskCqhap58VobNGiETz/9TG3PtOfAgYPqWvr06XvLdOlh2SMNDRoBULduXQUFjstgnk9VwecrmHKwxsFxCr1798bJkycde2lGRcE0hoVA14t3Ho7x7/2C2Yb+oiq6nNGAoXtnWR56MQeXUzS5b080IH5ADwS98U8EVvgngt9zpCqvPInwal8i62LJXf5ujHWm2rXrqrs8oUDj6GBnaDgba0KvvvoGevXqLcr0Alq0aInnn39BQUFPG5yN0Pjgg49Qpcq3ap+BAweJKhmgnME+c+YseHp6oX79BgKN74uVRlKSGTVr1pK/w0pKHbNOokPjzJmzaplKhYpnxQrt1Q8/pz3y0KAxZ2U9gr0HhIezU0U4d6fqxtqH/nAZi4EueziWYivElKs5ChA6LKgyisEhamPuDSuSc7W6hd2QALPbLIRX/wpBr/0Dga/+DUFvPoPAl/6ChKF9kCcBV57xBrFy5Wps27ZdKQcaZX+dOvUUNPTHBtq1a18uNJjiTp8+A++994GqIzDF2bJlK/bt2y/zkY6tStvOnbvwzjvvoUmTZtiwYaPqxSJImEaz2MwHI728jqJ69ZpygyuBBmtuVDDc9+TJU0ptUN0QGufOnVe1j6ZNm6Ny5SqiWG6G28O2xwIaulE58DkS9oSwkNSoUSMFBXahUoFwHQduMZXRe1n69etXfNdx2YO1AlEZJxNtChLsLdFB0U1AQec80xWu3xhuRXaeVrcolDw/+5IfUjashmn0IEQ1rKrAEfTui8jwPKi2KWu8q/Ouz7s3h+snJ1vUMHyqgIoVP8f+/ftVytGuXQeVrpSFBnuqmjVrLmnrNyqQWZzkzYlF0JyckneTOBuh8fbb76lzsHbRq1cf+fsaoHrGevfuo2olhAFrEzwuX/Gg25w581Q7FQV71ViP4XWyZhISEooKFd7C999XLX584Oe0xwoaZY05LVMVPkLOcRccEMUh5lQkfFCN3ZIskrrs4VhWXiHmBFiLAcEaxghJRzZHWDHqslUBo6ejvff5bOyMsiLLrqUqtBwRH6nxJhSGXEOOxw6E1/sehsljUJCtdW87G+sP9eo1kH/3Crh69ZqS+Q0aNFR3c9Yd6tdvqOoM7duXDw2OsmWBtFGjxupOz0Dms0ZMb9gzwkAua0wt2NNCdVK1ag0Frho1auGpp57B0KHDsWnTZqxfvwFbt27H4cNHSr2YKTIyCtu371DKgnCiGiH0+JoDgoLKxfmdKT+nPdbQ0I2PpzMd4SP1LG7xmQ8WwVz2cC0xpwADL+Ro0BDvejYLi4M0RXHMIApEQMF1BAfTl57nsrAj0oqMPC1QktPz4bYjGZM3pyI8CcgLvgbjojnIvn5NrS9rnTvzUYI3VVdmYqJRKQGmJp98UlEFI9VEeekJx0FwW/ay9OvXX7WxV4MjhHm3f/rpZ0U59C1+TaRuTCvYQ/LSS68qtcF9q1atJgriLXTs2El1344aNVp15c6dO69c1UAosBeFwHr55VeV4ihbcP257b5AIz8jHblhQci+eA6ZZ7zFjyHL9zSsN67CbjTIL+LnHYzisl+GBacXoLdPSTrS53wWPGK1rnJrfgG2CCCoMvQaRycBRy8ByfFE7WlXmyiVUYvj8XRVfzQcHAbva3bkRoYiLzFerXc2Bl+HDp0UNDhAjsZeCb2mwQDnTbtt25uhwXVjx47Dhx9+jOXLtZc66cZaCbs9n3nmeYHCwFI3n4yMTAUWKgbWM/i0NRUNu1PHj5+gahusi/A9KR4eB0opDd3c3Tfio48+UeqnQ4eOKmVhWvNLUsT/NjTsxgSke+6Dad5kGEb3QVz/9ojt1hwxnRpp3rUp4nq3RsLQbkicOhyWjSuRfcVP8lPX486/RmOAnjXaFQQIDG1cRhbOJ5aMr2H6siXShh6ObQiOtqeysSY0t7h7dcVuM56tfhnPVPPHDz2C4Xej/Hev6tBg0F25okGDaQa7O9m9ybEOLECyplEWGlQgderUVcVKP7/SY3aoQo4fP4khQ4apQVpMcXRjGsT0ZMqUaZg+fSYmTpykunjfeKMCevbspdZNnTpdrV+2bPlNIGD3KhXKu+++J2DZorqItbEkFQQ6ExX0fgl2z9DIz8yAZft6xA3siOg2dRBe+3OE1/gUEbU+R0SdSoio+4XmdcS5rmZF5ZFNvhWoNEPitJGwhv68D0e57OEbQ/6cEzRYvygLDVpOfhH2xBAcOegu27Q7laWgUaSOACzflYQXal7GG/Wv4mkBx6RVCchy9LQ4mzM0AgKuq7ZbQYN3decBfXz696233laDuzhuozzjIwYclZztVE/hw4l8FGDBgoVYsmQZ5s1zk/PVxuuvv6G6X1mc50utWah3d9+g6iS6cSQqx4y8+urrKsWx222qnWM72D37/vsfFr/K8ue2e4IGgz1xynBENftBA0W9fyGy4deIbFTlzt7gKw0i4rF92iLjhOcdR/W57PEypid9BAbF6YlPFvbF3NwTEZFZgL5+VnQ8na3SGT09oU1fa1Aq482GVwUeV9BuTCiiDTcfg9BgveKFF15SqoDdrhynUa1aDaUsnKHBQVMcTs5uVioJFh21kZ3fqNGa7HrlkG4632LPZ5xYYGc7x13oxmHkVATDhg1TtYuhQ4cp5cDaCK+F52A9g0PJZ82aI9eg1TSoOKhEXn75FXTr1kP16jgbUx1Cg3Dbu3efo/Xns7uGRs7VC4jt20ZUxL80WDgDgeCgEwz1Ned8cXuZbalKotvVV3UPl/16zJhTgEECAwJDHwG6ICgXefqzJEWFiEzLVcVR1jMImF0xdvXYPC0i3oofR4TiRVEahAanHceHISax/AcL2Y3JMRO8c1MVUB0MHDhYDRGn6iAgWHSkopgxY5YqdrJtz569aNWqDdq0aYf27TsqsLD2QWfw01u3bqPGVhw6dNhxNkiK46O6Vrme6zp27Kz24basT7CNznnCw2jUvvbH1zi2atVaAcP51Q665eXZ1bMqrI+MGDEKBoP24OLPZXcFDWtECOL6tZNg/+xmCDSoLBD5EhEyH9O5iaphJAzrjpgeLVRKQshENqxceh/xiNqVRHG0hjX85l+Syx5PU12u1wUaAgwdGoP8coqfN6Fl2gtwPTUffkn5CEnPl3RFAwaL6Yu3G/BGg6sqNakg0GBtY+a6BNj5IEs5ZrGkqB4O5zSA3aLs0qQSoZlMZtkmtngAGI2AYXd9bGycmtI58pjO42nL2rTsM08sjHLQlrZ9jJwrQQ1l534cNs5zcRteB8d+0FhDYdutPhlKI/B4DO7v/A2bn8PuCA2OuDNMHobwOl/cBAzWLqJa1YR52VzkXLkAe0wk8owJ4gbY46KVOjEvnY2oljXUts77KsUhQDHOnYiCrAzH2Vz2OBtfh3HSaEPPc1qKQnCwtjHGPwdXLQSHFshljQG+wysJldpdxyt1riiV8Vq9K/j4xwB4+pQ/MI/Bqgcl0xJ2szs/ucyBVRyerRtTFY7NYGDr7WzjcyN67wtNP1ZcXEmPDVMdPgBZ9ulTqhYe07mHhakH6xTORVCehw/UcXsap3wpEouzercs23gcnsMZcD+H3RYaRchDpt92RLUVWNRzUguOgI8f2QvZAovyBtfoVpCdifTjRxDTvfnN4JA0JqpNbdiiXG/C/rWYJbdADSPvJukHoUEnQEb4ZWFbQCaiE60oUOqiSNKFQgSEZ2DCihh81sYBDFEaFcSfE5UxfEEsMrLLL1RyuLcerDduBMLNbYEKYBphwq5P53ESvJPv3++hei102HDKh8lYR9ADmo/I8wVOzoVTvj2tb9++qqbhbFQYq1atVukHu3FpHJU6e/Yc+PldLD4mxw+xp4XjiWg8L9MR1kzYI0Oj+mEKxeJqeV21D9NuC42CXCNSz/WBcXk1RHX8VoLcAYzanyNhdD/kipq4G+P7DzLOekv60ljty5RGOesfktqkeWxXL15x2eNv1BL+lnz098lRKoPdqnqq0utMJgZ7pqL3snh0nhCKFkND8UPXQLzd6Apern0FFZiWCDBerHUFtfoG40LgrW9WvEvrBUWmEXxHqh64vLMfOeKpnkTNytLaGMBUIlQBzsY0gm9f040Khb0gFy+WvNSJT8xytCcfq9dBQGNaROAcO+ZdPPT80iV/tT3PSwVFZ1fr6dNnVC8P6yq8Po4H4ShWHSS8dl7z2bPnVZryc9ptoWEznoLlaD1YjtWHeWMdxPb/AeE1P0dsz1bIDvB3bHV3VlRYANPMsQKNz1SRNKrp94jt8SOMU0Yg4+QRFOX9MvqgXfbgjWmKV0Ieejl6UggNwoO1jo4nstDqQCoarTehysRofNonBJ90C8YnXYLwSddgVOwXhsZzo+F1PQMFt3n9H8c06AHMINRrGLqxLsBiKNfpxm30F+roxvW68qAVFOSru75zXYFv4mJKU3YcBY/HYOe2+vmdj6Ub1/Nac3NtxdvxWM7nZjvnte3u7o1yD8puCY3CvExkXp8Dy5E6Ao76sHg3QNKOuogZ8BVMblPlhygh6t1a1iUfJG9cgYwTh9UI0jxzIgrS01CYK/8Ajl+Wy34dxrd2HUuwqRfvEBzF8DifjZ6+OehBJXIyE528MtDhSDraHU5Hm0PpGHoqHecSJIVxHMdlD99uCY2C7DiknGwPi6coDa8GAg5xLwHIodbICTnm2OrejOMyCh2DVlzmsgK5UQSl2LHwRo56QE3VOBwAUT0sokQIEPqAizlYF2lDrLXwFuVSlz0suyU07BZ/AYZAwlNUBqEhnnyoOtIvDkGB9c4fR3aZy+7W2BV7Q+CxLcqG2QFWjLhkxaALORjjb1XjOPbH2hCWZofV0f3qsp/XyodGUQGscQc1aHg5Q6MqMq9Mkg1c/3guu//GlCUrrwjp9iKkiXOanS+5/G1qFy57+FYuNIoKbMgJ3yjQqOsEjfpIPlwdWdfnOra6teUXFMEu/9j34uWVNNjEY+WVcbbRH9bfUlF+PopYkHKqjLvMZb9WKx8a+TnIDllZDjRqIitwkWOr8o0PFu08l4mBq5IxaoPljj7C3YLRMjWk3FxVTrcWwM0jDVN3pGDazhRMkSl9uszP3ZeGXXKelKwHWxIjMJJXzIdx+mjkXLkoDa67nst+3XZraASvKAcaNQQaCx1b3drm7k3D1yMSUHti4h295vhE1JmUiEjTzdBIyihAqzkm1JqQiAZTEtF4urHY68tyvcmJWHgg7bZdbz/V2BUcy4Fp9b5E+pF90uBSGy77ddst0pNc5IStKwMN8UPVkRMwx7HVrY0qoIpAo45A4U5eS6BR9zbQaDHLpKBCtXE8wIoT4seu5WCBRyp+GGNAu3km+IaWHotPtWMrsCM33wZ7QdnjCmAY+EUOhVIkqUehXWtzGMeUFNlytbSkMF+DRt0vkH54b6ntXOayX6OVDw0JFGvMnlLQSFHQqIrUy5NQqAfcLWz2njR8OSxeVIThJicoCAnda4uKoGK4NTSMSmUw5XG2EIMN9WW/ZjOM8Lyijeqj3rDkpONg2EnMPLsCk08uwhK/jfCJv6ogorbJy4DNeBLW2APIS7mGnMhtyA5ahPwMbeRdflqKGqFqmjcJli2rkRserEGj/lcupeEyl4mVCw2aPclXoFFbQSNVgJF5tAGu7K+BncdHID7z1k/j0ZYeSldA+HG2qdhbilM1EADO4LgbaDAVWeudgZSsQqSKG1PzseV0BqqPS8DgtcmIs2j7JmSYMdxzJr5f3QKNNnVBsy09UGd9e9R1b4/dQUfU258Ks+OQfmEoLEebIPVUR1iON5f5hrBbfGHj04dj+yOiQWVE/Vgd0R0aCDB+RGTT79QTuy5ouMxlt4FGfmY0UrybI82rHlIFGBcONsKgjY3QdGtveEeXvOLsZitCbJIdFyNycSXKVuzXom04G2xFjyVJqDbWcNfQKK5pyDaNphnRaKooj8lGVBtnQIuZRhy8VPL8ga8oisabu6GPxxicifVHeGocxh6bg08X1cRY73lItokisRqQ7jsYyQe/F2h0QFbwUmSHu6MgPxlJKxaoNCS6fT2kHdqN7MBrMM4ej8jGVcS/cUHDZS4TuyU0Cm0pyPIfD+OROti7txFab2iJH9a0wjermsPNZ61jq3uzDGshBq5OVrWIe4EGt2kugGg/34z2bma0nWdG0+lGtR97UuKStX3zCgsQmZaAAHMokrJTEJ4Sq1KUz5fUw+AjUxGXZQFyE5HuNwRJHl8jO2yDSsVorGMYxvRDeNUPkbJrU/G7TPOSzdqDdq70xGUuU3ZLaLBAmBKzH4t3NELttS1RdW1rVBevsqIJeu8fg5j0e397ULatCIPW3Bs09PRk/fEMZOQUIlPAkyztx67moIObSSmOuXtTVU8oi54XDdcx59wqdNk7HC2390WjjV3kmhtj6JFppaGxvzJy4484zgT1To+EIV0Q9sMHyL5UoqSKClgIbeHqPXGZyxx2a2iIRafG4MetvfD96h9RQ4BBr7ZGALK6JWaeXobsvHt7g5A5vQB9VySh6j1Cg3WQ3edLPwbNbtYVnmn4aniCGhOSkV2IUzE+qL2+HZps6o7ZZ1firKQoi3zXK6UxTKCRkJVSSmnYEku+7VpgzVZvHSM0snxK2ot7T1zQcJnLlN0WGmm2LMw4swLfrWpWDA16VQWRNiogU6xpjq1vbXbhQWJqAVZKkDOtYI3inpSGrF9zNB1JAh064ROSYMeojRbVtTt6QxqSs6xY4ueODxdWx8QTbmp/9qasurQVnyyqheGe02HITi2BxoEq6tF/3bht4qQhCK/2MczL5iAvxYLCPDusQVcR3a6uKo66oOEyl90BGrQQSxTa7hyIb8uCQxQHwTHi6Eycj7sMc3aKGheheijEbZIqECihKeHYcCYG3RYnoc5EY7ldrmyLMN4MDbNAg5BhOtNythG9lycp77ksCa3mmvDtSAMaTUvEXp8cCfo8rPbfhk8W10LHXYNxJPw0tl0/iFbb+6HSkrroJSlVZLpRg4ZPf5j3VRKlccJxJs1S925FZLPvEVH/S/UaQsvmleo9puF1v1Bt6Yd23zM0CCO+wjK34NFy28/sBfzF3WfLzad6LoQx6wEc/Fdkd4QGAcAArOve4SbFUX1tK3y/qjnqyLohntOwxn879gYfU77h6h6M856PRps74vtFE1BzylXUmZAkoDCWgkb1cYloODUR0eaboWHhq+xXJKPdfDM6uJllalLO+Y4LzOi+xIw1x9KRa9cC+ZopBD33j0KjTV1Rd0MHtNkxAENFYXTbNxJ9D07AjeQokT3JyLwyBRbvpqpb2dkKcrJhXj4XMR0bIKpFNUS3r4+E0X0RP7SremFQ5knPe4ZGvvx9xskf6ZXkQlyz3IOnFP2sfj2lENclwB62B4gHphUixXZ/A9uYWYgN/ja03pKFAQesOB2djyy7Cx7/jt0RGrSc/Fy4CwTqbuiIb1Y2VbAoBY81rVTK8sPqFgoiymWebayBVF/XHDUWzUKdKRGoO9GiYMEUhQqCQ8KXHkpDJr/uW8b4INuNWDuuOrpsrzqcbaEGO8xp+QI1x8YOi8s04VD4KewJ8kKwqCTWXcJSYuCXEICkHEmlCu3IzwgXdvij0HZzasVelJwAf6Qd2ImsC+dQkJWF3Mgw5Fy7hHxLkmxwb39oVBkh6YU4lViAM8a797Omwp/Vz5sKcN788P2cnNcvqQAm6/0J6JTsQhwPs2HgngzUWpGKGivSUGtVBppszMIiH/lbknNS2fyaTX9b2N3aXUGDZi2widw/gBbbeoviIBhalAKHgofAxNlL1nG+JWrN24yaExJQdYxJ1SmYauw4lwmb4wO/j6MRGqECjdMCjbOEwR2cweorf8gXkgoleArhYy6UQHr47iPX4SPX8bCdP/+F+wCNHFGfF2NsGO+RhupuSfhufhK+X2hBzWUpqL4sDTVWpqPm6ky02pqNTVftiBV18++eMcdqQ6IpBZaUDNzqi2x3sqwsKwwmC1LSMu85iH+K3bhxQ71P1flTDHeyu4aGbhxANeroLNTf2El1v9KpLFjjoOLQAOEAiEOBcH2VFY3w9bJWqDv/kKQcFqzzzoAh9d/7BT9KdrfQYMD4SrAcT8jHAZHO+2MKcDiuACdlP8LD9yHD41GGRqjRhsVHU1FnrgGVpyXg65mJqDLbiLbrUuB2MgsTDmeiydo0VFsuqmN1BmqvyUSf/Tk4FMo63L2f1/PkJTTpOAlDJ65CRNTdvaDKZrPDYLQg3pCEvPwCHDt1GW37zsKU+ZthFQjdTyOE+L5Rvv/U2fm+0fXr16Nfv37qu7FcLm+bsnbP0KBl2nOwM/Awxhydje57R6D5lp6oua6tKJAW+FogUnlFY3y9UmAiKQq7QH8UddJj/yiBzXSsv+gNQ9rdU+1Rt7uBBmHhFZuPFZJzjz2Zgx5HstHZKwf9T1kx/VIuNoXlqfTmYaqORxEaqVn58PBPR5tFcag0Nhr/mhCLLybGop6bAaP3pMBX0lyaTdLe/ddzVcpSb1Ua6qwW1bFG5tdnYfopSYXl36S8B6fDBQjuO45h+/7T2H3oHHYePIM9R86jeY9peOKPVfC3d1tg+LS12H/UF7sOnpX1Z7F5zwl4nfJHeob2fJRu14Oi0HXwfLToNgVxAo59nj5q/4o1+iJV1Mb9NL4V/fjx49i5cyf27NlT7B4eHli0aBE6duyovjHLTzE4r6fzLe6Eh7P9W9BwNg7y8oo4izX+OzD33CpMObkYk08swNRTizHv/Bqsv7Ibx6N9EZdhKvcf4nG3O0GD+fuhyDzMOiWQ8MjGQAHGsONW9PG2osXBbNTek4UfD2Vj1mUbjhuYujiCOklUX/LNznbn4D9vLoJP2e0ssp1MuU5t43wsxzqeRw/ki6nApTTgQormvkydkotwQbZVbTJlG7f1c7T5ynq2ccr96Vqb1q4fu6z/FGjs9knFt2PD8cnQMFQaFYnvJ0ejn7sJ+/wzkct/CCdLtxZi5bks1F+RglrLRZWsFHisSUfVlZnotc+KtHLOv3aLJ/7rhbr4/csN8MQ/a+C/X66Pv73dDP/8oBWer9gOz37SBk+93xL/+3oj/MfzdfCbZ2vhP1+si5o/jkJYZIKkMbmIjjPBnJwGr+OX8OLnHeQY9XAjJBpXrkfg+U/b4qXP2sFoToU114bg8Di1/U9NV/jlth07dqgPSFNZrFu3rtg3bNiArVu3qqlzO33lypXqmyxl36D+k6Hhstvb7aDBIDkak4fZJ3Kw4JwVJ+LzcclSiEvJhZKW5GNloB09j+eg/n75496XjZmXbDgl+zGgT8ZZBcaZ4lml/Kzsd0ECVIeFnwTwydicUtt6cz4mG2cS89R6bnc8husy4R2ViVPxucWAOG+Su/e1WBy8Ho8TMbI+Mk210U9EZajlk7FZCiIXZfvTcXKuqPRisFAdeYUlwys0Sc2zjeAoCwvdfwo0lh4x44uhwfh0SAhqT43EMi8LLJml75Lsdj0fbsW4/amo7mZC1QVJ+GFBMqouThFwSNuKNHTakYUE+Tcra6ER8Vi54RC6DHbDE09VQ6U6A7B0nQfWbvXSfIuXKBFvdOg/F79/tQHe/LoLJs7eiMPeF1TN4rRPAFp0n4YZC7dhz4GzeOub7vi/NxojMDQW8QlmvPR5ezz5TnNExBgQFWtE9RYj0ab3TJXK3A+zWCwqDYmIiCjl/JZL2Ta6/p2YsuaCxgO220HjgsBh8Rmr5Nk5KlguWQqwKSAPM0/asSMoXwXenqh8DJFtGokK+fFwNjZLquIjQbdG5PGoOUsxYuZCjJy1WDnnx7utwubTAUoxHI/OxvzNHhg5U9bPLvFh090wY+0OAUSGwCARU5ZvxPCZi7T1Mh0+YyEW7/TE6fgcnE6wYtKS9egzaiImLl6L6Ss3Y/u5QLV+4qK1mLZ8EyZJ+5YzAdhzMQKz1mzHlKXuWLjtIBbvOII57rsxXM43eNJszNuwB26b92P7+cCbYKH7T4HG8sNmVBp8Ax/0vYHRmxKQlVs68ANjMrD0GGsdCfhyajy+nmHA17OM6LDegkmHM9BgeQp+EHh03pYBQ8bN0NDtjO91/PnNJqhUdyBCwko+uajbtIVb8cSfv0W3oQtgFXWhm/s2L/ztnRZo1nUqtu4+gXe/66GgESTHyMjMxqtfdMSfKjRBgKQu8cZk/EPSlRdEfSRZyv/05L0Y1YqnpydmzJgBNze32/r8+fOVMzW5bzUNl9293Qoa7F48EpkPN+8cbL0meXRakUpV+uzOxRezJE3Zb8O+cFEeAhZvSUsWBtgww9+G+bLtsYRCuHv5YdyC1Rg9bxnGzF8hvhJj5i1H7xET0bn/MOy7EiuBexgtOnZTEBjnthJjHU44zNu0B/uvxQtsFqltRsxcgBHSPmrOEgwYNwMtO3XDEgHD3stRChiVq3yDL7+qjEY/tsUIOV7vERMUbFZ6eGPYNDd1HMKh3+jJGDV7EZq164S+Mt998Ci06tITgybMQOOWbWW/8Vh18LQCRHlpyk+BxrIDRnzW7xre7XENk7fFIyNH60stlLx4y75r+Kb9Drzy4xF8PjocX0yIRQM3AyZ5pOJCtA2GtAI0Xm7BN/OT0XFTmkDj1v2wpqRUNO8+Ff/5TE3MX77b0aoZe1AadZ6M3z75A9YKJJxt7VZP/PPDVmjdZxa27TnpgEYjBQ17Xj4qVO6CP0pqc/FKCNIzsvBOlW54/pO2kr5oX1TjR5XY23G3fv36daUs+P1ZQoNfkPP19cWlS5du6/wuLZ1fqCsvNXJB4wHbraBxQdKQdX65WH7aKmlCPnYG52Oytw0jDuVi4lEb+uyxCjis2BmSh83X83E4SlMmhMbB2AKVCpyQFIXphJZ6SFohqcGeS1Ho2HewBPQm9BKAjBewFKclsu2xyAycMeQhUGJig/dl2XYQNp26BmESJPXH5SzguqhhQmbolLnYfOoKWnfpgaZtOqJNt16oXrueAsaA8dMxb+NeuB89j7ECrbECrMGTZmHo1HmYsmyDQKe7qJJNWLH/hMBjEqaJQhk6bT5mr9sJzxCzqKXy6xo/KT3xMODTnpfxVmd/TNwch3QHNNLSc/FJrSV44rnR+OM7U1Fp0BUM3pyMw9eyi7v7E1ILUH+RGZVnmdBufYqkJ7cfvLFmiyd+9/eqqNt+ApKSS8b7bBUYPClqoXLDwSqdcTamMk++1wIdBszDjn2n8M63JdDg92vf+aabggbTmKxsK6o0GoJnPmqNY6e1D1Dz27CjR4/GqFGj1PROPmLECMyaNav4045+fn7YtGmTqm/czrdv345t27YhPDzcpTR+DrsdNFaey8WKs1b4Jheg354cVFuciXGeuZh7xoaxMu29SwDibUXDtRmYdELgYirEIonuQ/GFOCNpw/iFayR4ZyjpTx8iQd5v7FS07NwDo+cuE8UxXKAwBIMmzpY7/SzlA8fPxIAJM7FK0ptVB8+i26CR8LiWoNIZvXhKcMxau1OON0fVIhjok5eux9wNu9Gh1wABw1x0HjAMDZu3QuNW7dGh90Cs9/JVgOov5x87fzmat++MPgIXQoNQqdekBdYeOS/nn44dPkEOlXF/lcaSfQn4uOtFVGh/AeM3xBRDw5BsxedNN+J3b0zGM5WXYs7OGPWIgrPFpeSj7vxEfDktEe3WJN8RGpExifiu6XD8zwt1sHjtftVGldGw40T89u/VsMz9oGpztrlLd+HPbzVFjxGLsOvAGYEGaxoaNBic74vy+INA46hAgkVTHuupD1tiuwCGxg8/e3t749ixY2p6Jz969Kj6wr3+lXl+/X7Pnj3qI9S3c/aisGeFtQ6X0vgZ7HbQWO2Ti5UCjYupMn/FjkW+Nsw5k4s2mzIx1jsbSy9bMdI7E0OOZGDDDZsaqel2VaARJ8FlzMOS3cckoHdhzoa9mOO+R1KOfZi+apsE8SBV7+gycIQAYxbmbtwn2+xR28zfshcDJ85EV4HFzLU7JH0YDY+ABFzKgAIHnaqD6wbJdix0Lth6EN2HjEL/cdMEPAIdmQ6UdIPA6jd2sjrHkWCzqJsNahvWPlp06IJ+YyZj+d7jGCnpzI+yvGSnl4LbTr+QBwKNxbvj8UEnP7ze2gdj10Uh3fFFeWNaHmoN88MzdfagUs9ziLfcPA4i1pKH2rMT8MWkeLRZaUaC7HMn27z7OP7ySn18VL03jp70x9T5W/Afz9dGfVEf7EYta1PctoiSaIihk1Zj/+HzeFsVQjVocGTZW5W74jfP1YaHAJjfde3Qfw6e+qAlVmw85DjCTzN2vQYFBamv57NecSvnB6+pTsr77izNBY0HbLeCBoNmX7Ad87yyMdczGxsu5goItDEbiy5noucxM1odicfUi6lqjMYlSxFOJBTA7bINRxzQOJ1gx2mD5kw5zhrzsd0nREFjwbbDKh1gcfS4pCVcz+19CatD50UpDBeQ7FPwmLZqq6QtafAKS8HR8DQcCoqX1GY8RkxfoIqhBEa9Js1VvaLX8PHi4zSXbXoOHY3vqtWQVOcipqzYiL6jJqpUpXGrdmqbWWu3Y+jkOZjrvhtjRP1w/52+DwYaC3fF4r12Pnil+TmMF2hk5DigkWpHw8mheLfXDXw7KhSRxpuhEZ8iYJkRh8/GxaDlskTE3wU0OPZi4rxN+MvbTVUR89mPW+ODH3ri/MUbji1K2/Apa/DbF+pi6oKtOHzsAt6SdITQYO8JodG8m6ROtfvjjM912Ox5AuiV+Mf7LTFz0XbHEX6asRA6dOhQzJkzB4sXL1ZjM8o6x21MmzYNw4YNU1/bL89c0HjAditonBP3k7Rk1uFsfDU4CVWGJWPktkwcj8vHUaMdS4LSMNrfiJ3RObiYDFxksF+zYUOQQMJUhOX7Tqi0o//YaeqOr9KOcdMlwEcLLNxU/WLjiauSogyVYJ8iymCmuKQosk+XASNUD8rRCAvmbtqP9pJyqGNwG1ENvYaNR4+hY7HpxGX4p0MVR+s0booW7buotMPZm7XtoIqeuy+EiTrZjkXbDqkelh7DxmLS4nXoKVNe14SFq0XVjERXUT+HAxPVmI37Do0d0Xi31Vm81PQMhi4Jg9XxICOhUW/sDVTo6I/Kg68jwnjzV9epNKpNiUbFUVH4cZFBQeRuzPu0Pyp82QlP/KM6nniyKroPdYNNVEJ51nP4IjzxdA0sXX8A3qcuo0KVbvgToUGlIcZekwuXWQTNRn5BASbM2YQn322B0dPW/eSxGjSmJpMmTVJKw2AwqBpJWWc705pBgwap9KQ8c0HjAdutoEFnYXN/iB0/zknFK22M+LinGb1WpWP3dTsuphTCLz0f/mkcRFWEzYE2zD5nhZeoDAbcOq8LmLZyC6Yu34RpKzYrnyp3+oXbjwgM0lWawbEaO0R5zFq3U6mJ6au3YaoE9LzNkrMyJREgnBL1seaIb/F6HnOWpDy7L4TLeTlWowh7/aNUisIUh8VPZ58rbes8fdX4jL2XIpWKmLdprwDLH56SsrDrld2wM1ZvVbWRNYfPKZVUXs/JT4XG3E2RqND0JF5pfBLf972A1QcSkJqZh8ycAtQfHYDX2vrhy/7XEG4oDY3gBCum7TKi8uhwfDo8HE3nxRW/rLo845DsywHhWLx6P6o2H4k/vNoQz37UGn95q4lSG/1GL8X+Iz4wJWm1BN2adpmCJ/7wNTbtPoFT56/hjcpd8IfXGggsyg/O6Qu34XeiTDhylD1AP9V2796NBQsW3HL8hW7scRk5cqQLGj+X3Q4aChyWAmy5YkOL2al4s6MJr3cwqSeBh27KwvRDVkw5lIPR+7MxxTtbdcGedxQrL6RpPR2X5d9fTR3OHhCO7FRFTYEGB3o5r9e34cjNs0ZtNCjhUXYbjuBUgSxBzPmrcp5b+WXWQwQC+sjPKzyHHJODwzhfdttb9ZzQfwo0NhyMR4VGx/F0zaN4qeEJvN/mLPq7BcP9iAHfD7ysah1f9PZHlENpxCfbsP5oEtrNjcBH/QNRcUgI3u0fjB/nxyA5q/SgMFpgSAwmzd2E7sMW4pPqfZSyIDC6SFDvPngWqzYdxr/qDpT2H/DXt5qifseJGCYpyS6P00o9jJ3pjs+q9pL0JQhXr4fjFUlpnnimJlr1moGxszZgtKwfPWM9Roqy4Hn2CmCnCTj2yfQ+CA1V3Bw4cCCWLVuGjRs3wt3d/SbnyFCmL3379kV0dLRjz9LmgsYDtjtBg86i6O5AO0ZszUSjaSn4rG8SPuhhRpWRFrRanIYx+7KxJ5SDujgsvGSI+IP0R/HZE4M5F8t3xuDLDmfxVHUvPF/vOJ6vfwIVO53HB+3P483W5/BFz4sIjMnGYSFaD7cwUXdX8E63q3ivVwA+6ncDPZfFwDsgs9yv9i1d74Enfv8lfvt8bQWNQRNWYeeBM0hJFRI6jM+UuK3aiyZdJuPpD1uqQV5f1OqLYElB4hLM8L8aprpTMzJz0Gv4Qjz9QUulJn73fB2Z1sF/inOI+j/eaYaQ8PJrCv+u7du3Tz2ctmTJEgWIssPG6Rxmzm7a3r17q3Ed5ZkLGg/Y7gYadIKDA752Smqy5KQV849aZZqrlpn7M0UpL7gflD+K0NDt3JUUDHULxLvNT+CZmseU6qjQ4jTeanUWH3X0Qc95Ifi6rz9eb+OLNztcxFudLqHRxGCs8jQjxlx+PYJ2LTASbiv3qgfWrkh6crvbvzkpFcdO+WP15iPYtvcUklNKwKIbh44fkNRui6zftq/Et+w9iT2HzqlRovfTmG6wd8Rmu/XPSGMXrY+PD9LTyx+J6oLGA7a7hQadL6AhPPzTCnElvQiXHfWMh6UunP1RhgYtMzsPHqeMaD/uCl6qewzP1zmGCs1O4a2WZ1Sh9NUW5/Dyj+fwZR9/TN8aiysRkke57K7MBY0HbIRGsEDghKFAdZ3erZ82Cmh+RlcgkwB+2M63lvElRMafCA3dYhOtcD8Qh3oD/PB8bVEdDY7jpUYn8XbLsxi8KBTel1Jgtck/ksvu2lzQeMDGF+Qm5hQhKLUQIQKPu/VQURo/r/MaHr7z1YjhGYVIv8/v77wRkYkJy0NQsc1p1O7vh01HEpCcdn+eHv21mQsaD9j4p58vNzK+h9J+Ly77/Jr9Qbx7JSsnH2cupyAg7Ob6gsvu3lzQcJnLXHZP5oKGyx5Z42vo+EJcPvrt8ofnLmi47JE1PhnKh6rsdrvLH6K7oOEyl7nsnswFDZe5zGX3ZC5ouMxlLrsnc0HDZS5z2T2ZCxouc5nL7snuGzTyCwCrrQi59iJYHc55vriVX7Tix5zpeXTZltvnFxQ5ppA2zpfnQEFh+c5BU/TS7UWlljlIqJTr7Wpd0c3rb3LZRmZKXNpu5eXuX47L/91qf/mfy1z2i7b7Bo0MaxGiTAWINhcgypyPSJO4UZalLUbmY6U9zlKAxNQCmNIKkZRRCEtmAVKyCsWLkJpdiLSyLuvSs4uQmaN5lpwjWzxTnOfjVG/XvFB964LbZEl7di6nhciUY+nOdZoXqmcOCLrbOT8knCPbZXMqbhUI3spzBYh35dxWjqU55zW3SzvB8bgY3zZVyvlf2an+n/M2d/ufA7Ka8z/nZWe/1Trn/8pb/+j4w7T7Bo10CU7CIiaZ0ChQ0IgQaIQb8xBmsCM0IU/cjnBDnqzLQ0xSPhIEIsaUQphTBSLphUhWICntKeJpAg7CI50gERjQ08Uz6A6oaFMBg3IJYhsQE2+Fu7sRkyYZMG26EdNnGuB7MVMpnxwCQaByJ1fgEc8UcGSJ50hwa65BRB3H4c4AcPbyAKOrMc01gNlk/nGBBsdQJGdlw5SZJZ6peRY9Q03N9GyHq3ZtPik7S3my7jlZsDg8ie5Yr3m28uRiz1Gu2nK0eYtMtf05tTp5tnjJsbk+RdpTrFzHbbNlXtpkuXiaK1PdrY71udo+2rxj2bFNqsyXcpsVaffkuQ63OXnptlSZz5BpHqXqQ7L7Bo1sCRp+O0J5Sj7ixaksYgUisckCkyQBiTEf4YkCEQEI4REly3HSbpBtjCkFMIsCSVbwKIJFnMBIdXgaXRQJAUJY6Oqj2AkNh1Nl5OQWwMvLjHlzozBunAHt2sSjY4cEzJtnRKzARDIfLaDlum9SFzo0HKqEsMimgnGGhr5tqWOUVg7lebkAocs6pnKPCzQK5I84MT0DcWnpiE9L0zw9DXHpqWpKT8jQvGQ5HYaynpmORCdPoBev55fQNE9U00yHa/OJ4kaBljEzQ1yf151t6cVOqJmzBHDKua0ON23ZJECja6DLusnV+hxZJwBS7gAgoZckANJclq1c1qYlLpArdud2AV+xWx0uQHNaTpJ5gsr+KEKDf/gmCWyTqAWjBH6iAMAgCiJBYBAvzvl4gUi8ACKGKYwAI1IAEploR7TRLumLgEbUh0FXH0xhHOqD8FCu0hhNdVBZKHXBqbTTdWjY84GL/mnYsjkBMTE52LsvBV06xaJLRwN6dIvH7j2piImzITLGhqhYOb9ym8DELscpKAaHrjIUNAgMAYdKVTjvWNbmJegdALmd4nD2m6AhTgX0OEHDKEEbn64FuXKZNwhIDJwysAkAwkJcBb4Eru5GUST0RAleuqZQSto0CHDbknkNBvq8Dg1RO3rgO45xsxMEmmpRAHC0c15XM6XdEfgCgju5RUBA5ZJMdcP5cl0DQfnO/W52pYgc69Nycx9NaDBXT5HUIEVSCIt4cpYEvgQ6AWJQ6kPAIW4UeCSKcz7eUohYURqseUQlihvEJZ2JNdkVQBIVQAqQ5FAgFieApGYKPBygUNAgMERhZOdCVEk+Dh5MhJenWV1bWHg2Jk00oG3rBHTtnID+/QwYOdKEUWNMGDfBhAmTTZg0zYjJM0y44J/lgIMjLVHw0JSGpkC0+WLXAaJDg0BwgsOtXKUlvwJoJChI3OwMdgPdoRp0OGiKQZtqQNBczUsgK5d5pQbE9W3UskDDxJRIuQ6Qm4Fhzta8pE1UgQT4TXBwtBEoPJ6mHBxAcAQ850uURInr63UoMF0qWZbUJlfzEjjo80xvNNcAoa93rHNytlF5MPV5JKHBR7/TJKjSJICUi6xPkUAmPJIyWfwUaAgE6ImiJAgPkzinBoFHvMCDxVJCIzJRVIDBjhhRInHmPCQk58Eo+7H2YdbVh3gqXQCSkQ0BhricMzcPOOdjxvbt0UhJy4dcFk6eTEWvHjFo3TIenTqId0xAl86J6N7DhF69jejTPxH9hxgxYKgZS1cmwSDKh18Xp9LQFQcBoYqsdKYtbJOfkypEVyL0YsXBOoUTJMr6rwUaVBrxAgV6idJwuAQ7XQdGMSyoEBxBr0NEwYMB7kgPFBQUOAgATSlowa15kgQpXQ/4ErVBQGhKgftpEOGyFpgKErI/pb8etFyvnUM7twp6m2wvwcqgLQZFMTC0lIE1jFRuJ8vFqsPhbOf6FFEJ2nn09lxx1ipsjvbbuZxHPF0pDf6lPxy7r9BIl0DKkMChp0vwpEmApUpbilVTH0kZWs8JFUSigILwMNFlnlOmJQogrINQfRgEHgm5ahpjtCFeAGJMzkeSbKfVPpiyyH4WO4JDMxASlokLl5KxwT0UJ08b1XXFxedg5owYNGsUjg6tY9GpfbykKgno3jURvXsJLPobMXCQEUOGmzBslBmjx5vh6Z2KtKx8FdgKFvLzZMkP6AyHO3mx6tChIPPlwuNxhUaR/LtI0OtKg8C4CRoOIChYUBVIQHM+MMaAM5dDcCM6QQU7tyU8GLDRySm4EBiJc1dDEGYwqmAMjE1Qy1fCYhCfyhpFFi6HxkgbP4yU7KhLaKrCIKnQpeAI+ASEIMJoVG3hiUb4Xg9T+xM4hrQMtb/v9XAExxkEAo79RZ0kizqIs6TALzACF4MiEWVOFnhoUCAwCIHIxCRcuBEB3wDZPzZRKRQWRgkFTsPlui8GhuNSUISq+2jg0Iqn8Smp0h4l66PUOrY7A6Kssz1NAPVIFkJLoKE5oeHsCiCSvqi0RQKeqoFKg252AodJ0hG2Jco0QVKUOIFHtKQukQkaQGJEBcSbJXUReBAciaJCtm7ndxrOYc3aYCxech0HD8WJCimATVRHSGgW3NfHYuniOKxaYcDqVSasXW3GunVmuLubsXFTErZssWDLdgu27bJgw1YLVq4zIV7Ujq1AVxMFmsJwBgOX9TZ9Xry4/iFAKAUNcdXVSv81QEMpDQ0WpUBR1p2gwaCLs6TCbdV+VPymD3oPW4KAyDh11yc8KPGXbzyM7+oMxdfVB2Hj3pOwFxVh1tKd+OKH/ujUdy78Q6IlkC3o3G8+Kn3fD+NmbBQ4JCllwOAPTUhE03aT5BhDsHHPcSSkpWL9zmP4tvYQtO46Q6CTJtBKUPNfVRuAXkMXIdxogsVGdUEwZGHV5iNqXd3mY7Dj4FlkFcmNTK6dCiOzIA9uK/bhq+oDUFm838gluB4Vi6xCuwR4NtLzcnH41CU0bjMRVWoOwib5Gbgv29lbNG/5HvxQfziad5yKILmONLsDKOKp8nuglwUHlcYjDw1CohgeEkjO82miOlIFHKxLMOipPBQwHK4A4gCJWRSJSakSFlDzFTCiJW2JMuSpKcHifSoRjRruwaBBpxAena0gkpyar9IV1jrSBB4pspyaXuBwUUGSLqXL+dPUNF/zrALZpxDHz1hw8lyqpD/5yM5zQKE8V5AoSVGKUxmZ14FR7ASFAIEQskna8+uBxq1rGsoVMDR1oUEjB7FyF5+2YCte/7AtPv6qB2Yu2qGCMV2C0dv3Ghq1Ho+3P+0g3lGC11Oln+Nnuavtuc5P7vCRpmQFhtc+aIsvvu+DvV4+cgwtpQiOSxBgDML7lTpjxabDChL8WPN7n3dG7aYjFEQY5JznOT7/thfmrtiJNAnqTAn8E34BqNVkBN78uD2+rNoXG3Z5I0eugkojPc+GkLhEdO0/D69/0AbvftYJ//qhj4JErmyjKw2eo8/wRWo9rzkgIlYdw0/UTo1GI/DBF10w1W0rjOmZqltVh0N5wNCUxiMKDb6iLkOCIPMWrlIWBRBtmiYBSniwuJks4DBTYdAJD0IjrUj1oOjzmvqQ9EVSlzjV01KAq8HpGDXmFL78YgMa1NuJrduCkakKoUWq1pEux+egL5tdoCaqg87r5Mt+OSqVy84BnJqej4OHTYiSlIZBnimg01KTElhoNQ4NGjokuJ2uMm4ChpPrcGC95FcHDSdF4ezOEGFqEJNsEWhskaBsq7x6w6E4fNpfddkOnbACFT5qIwHfEW9XbI/VW46AoTJ+1gaBRisJwLEqLdCgMQFvfNga78h2zTtMwFVJPTIKJI2VdOO7OgMFEh0EGodUOrNsA6HRQUAxXK5XoBEt0Gg2XLVV+Kg1ajcZJqlOkKRGSRg8dqm6hncqthNo9FbQsKIIHPuRK9MD3n6oWn+Q7NseH3/ZWe2/cPUegQXrFUwzNFVx8kIAqjUYgrc+aYsFK3crhTVy8mq8/3kn1GsxSimsdLtdwFACChY8dWdKQud8hu1xgIYEUaadwcRAksCTNjrbqTgyRZZkSJBRmdwMDw0UKlUphoezS7t4SjZw+pwB9eptQOXK6wQca9C1ywFcuposKgawUMVY8hAakYGAG6kIDM5EUEgmgkOyEBKWraYmc64aW6GPswgJyxHlkirXYJcALlESpVxBQyDgmLJNUxp3hsadRpQ+ltAQV3AoBxiq3QkaLFrGWCyYMn8jXnuvuQRmW7z6Xgv0G7EQCyTwPq3cRUDSWgKynUCiJVZK0PPXNXb6Grz0djMJthGiNMIUNBq1Hi37Nsfbn7SWwGyN2Uu2qxQnzGDC1zV6q7blGzwUNJas24+35Lg1Gg2S5RQERMWgRsPBat93KrZBBTlXn2FuomwOijpoI/u2Uvt//m03rN9xVKABFdxWSZXmyHleersJmrYdgwYtR+DVd5uja7+ZCIqNQ5ZAS1MbLIBaMX7mOjleW3xTs48CS5UaffCuwIgwZDetXgzVe0t0UDj7YwIN7c7LAOI8YcEh2NowbC1wtEDTIMIeCQ4J52hPlbYIPJIIB4LDAY2k9BLX4ZGaBYTHZGH8hKOo9NliVP5yBb7/dg0WLLqoCqpGSz6iEnIwZ+4V1K11BM0an0HLZn5o3fIKWv8YhF5dg3DeJ0VdNwFAaGRmF2CPhxnB4dnIZWqiwKABIZt1DQUHXrMGjGIFom8j7tz1Wq6XAwvdH69CaJEqhN4SFo6eE2domAQa0ZKeTJzjjtfebSoqY6Cogr4S0C3xQaV2AoyWctcfotpeqNAQKzYeUNAYM3U1nn+jAeo0HQLf6yx+JqG+AORF2eZ72fadT1uj0nddccb/BiKMZnxVtQdef785lrrvU9BYtGavWv6hXr9iaHxft68EcGtUbzAAlb7tItfwo6gAUTniVev3FxVBJdEB67Z7KoWRnpcn5zWjW/+Z+Msz1TDdbRPmr9yprvtDca+z/rKd3BwFGvQ0uw3XI2NQt/lQAUsTOW479XO26jwB4QYzMuR4zj0lVBqPHTSYr6dLABEcBIFSGZwvBobzXVib5yhSBp7a3iouqoMpRWqWNiLUGRJmBQ0O+CppSxfEnzofh/r1V+KLzxfi84qL0LbdDmkzaGNC0iTd8IwXUJxEzaon0bCeHxo3vIbG9QOxbEk8zEk2gQU/rKMFO7trL11OxyHPZBiT7Wq5uJvV4fpgr2Jg6C7rigd7Ff+c5Xu2w0vauE/hYw8NrXtV5lnHcHSxFkND5tnVGZ1kkTvwGjz7Wh2MmLwc81bswHMy/48Xa0rKMUoFYu0mg/D0S7WwbP1+BY1Rk1fimVdqo2bjgaoXJMKUJAAZjKdfro1Zi7cIQIYKZOqjz9C5qteicrXueOWdxqIw9iIhLR0L1+xWy9/V6S3LKbgWESV3/Z5486PmGDB6IabO3yBQqivXUEOCehwWr92DD/9FgLTC2q2HVXqSI0A4cvqSqIaeeO71Oti42wsXgsIEfP3x5HPVsGLDfqTl2ZCiUhRJN3JzBTQ2LFi1U47TWo5fX+DWEh7HfBRQ2PVaGho3+2MADagCqKYuNGCUVhilXU8J6Bo4CtQDZwRHhkw56pN1CaYtSU4AUYqDqYxMmYYkpRdg9Vo/VPxkJr6o5IZKny/AuPHeiDHYkSBqIyLeilmzr6FmNS80buCDBnX9MbB/MK5dz1TXTGhcv6GlLKx/cKDWXlEbFwQevB4+F6KrC00ZUWVogKBC0ZdLgHLzz0qQ6JDhlEC9+VkW1joeL2hwTIQOCk1ZcBCXk9rQoeEAi1IayRaMm7Eaf3+hGibNWYcr4VEi9UdIQLWQ9OAAjvtdxbe1euLvz1fD0vX71LlGTFqGp16sLqqgL3wCQlVvSc1GA/Dk81WxYZcXVm89JIHZEhU+aopl7vvx+Tcd8dJbDQQau2EQaDBwX3qzvgR8D1WkDAiPwdfVuuHVdxpiwqy18A+OECD1l/SoPdZtO4xj5y9L6iLpk1zTmi2HwI8cWosKMW/5Vvzz5ZqoXL0rTl0MQE5RPrr0nYo///M7USAzEBpvkBQlX4OABHumpCsrN+5X18b9eDxPAU96nl3gokPDUc+QeQKCrtIbHRpq+oiOCOVdkt2qquhJZ4DJtPQdtcSdoaEkvTiDSgsoCVAJ4AwqD44wdcCDNY9kAYdyUR30TDtw+boJ7dqtEXDMwGefzke9Omuwe28wUiSFIWhOnU1Cj+5nUafGKTSo4wv3jQlyvAIFp9SMPCxZYhSwJCAmTvuaeKI5Fx6HTIgzWJXaUM+fKCBo16bSFkdb2WUFDS47oKB+ljKufjeOeR0mdI7leOygQSCougbBoAPEGRziAg7OJ4lsj02xYMy0lfjbs99j5ORlqjvzzOUb2Hn4tBrD4HX2kqiAbmo9lQJt+MSlAogfULVeb8f4iyS5w/eVNOE7rN1+WKmJzn2myN28NipX7YzX3muAV95tIIqB0MiA28odsq4OvpZgjxelcVVA9eUPnQQk9TBSgMQ7/1m5hv1HfdRDcIeO++HND5tIutQUqzcfVD04HLvRa/As/M9fv0LbbuNxSVRGSkaWqKBlojxqoWLldgok/AsjDNLsdoQlGFG36UA8/UoNvP5eI3W+dt0nItqUrFSIDgwdEM4pyWMCDW1EqN47oqsOBsNN0JB1ztAoDQ4tkFQAMhAlsPk8CB9YS6G6EAhYdHAIRCyiNjjydK27Lz7+aKKojXkCj3kYPvwIYo258g/H1KYQ6zeFo36dE+jX9wp8/NOUQknOzMdhT4u0JaBTpwTs2m1BRFQuouNt2HdQ/nhEjVD5EAolw8kdkChu09wZIHqRVAfD7Vz9rA5/LKFRSmmUzGsgKe0aNFIEGivw16e/xYiJS5Ap0NBGc2Yjs7AAh09dEBXQBX95+huBxh51rqHjF+Ovz3yL7+v2LIZGtfp95A5fBau3HJC7tg3Hfa/i8yrtRJFUxbOv1hQVUR+L1+xSSsNtxXZJgUQhCFASUlNxLTwa//quA16sUAfDJ8g15OdrT5RKcFJV7D92Hm980EjA0RirN3moazjucxnf1+kh5/xGrq8zuvabIhCZger1e+PltyS1eeEHrBeAZYrSIIQIjcmipF6R63jn02YYLj/Du582V9tu2uUp59OeZnWGBmFxEzTEH930pBgamitwUHlIMCi1IW3OXhYazk5waA+EyZQBKODgezFY70jJlGBXqkODB2sf7IHZuPUCPv2E0JiLLz5fhOrV12LLtkBVZGXRNCg8GxMmXIX7phgkpuaroelsmzQhHu1ax4sSMaJvPwOGjIjHiDEJGDfRKCmKBg2VNhEC+vU45qmGFNw475iqddJeHiDu5ATq4wWNrFKq4nZORaKgIXfsUVOWq4BnwGYU5mtDysUzJOAOnvRTwc31rC3QhoxbpCDCoPW5pkGjar1e+NM/KmPlpv1yXJH5Ely8678oauOpF6rilbfrYtHqHSodmb9iG559pTq+/L4TEkTNXJP05ItvO+AFUQjDJJj1oiQDldA44O0jyqCBgKOhKA0NGkvW7lLgeV72eeujxgKAZnjnk6Z4r2Izda4nn/sOfYbOQZRcG9WGz7VgAVNH/E1gN2bqMkSZktCxxyQ8/VI1de3BMfGiNtjbokFDpSfiOiicAfJoQ0OCRVMZHI9RAhAGhB5whAKDQwMEVQi7POkl0ChxgqMEHixYZgg4qDr43AmVR1YOcOlKIlq3XY6PPpiISp/NEXAsQMWPF6Fbt72SulgEKkxTCnHpagpuhGSqeXNaPnbssqinXjt1SBBoGNCrlxF9+gk8BiRi6QozEsx5AjC+K4RFV/lZCA8C4VbOa3TyjDu4+r0o15TGYwUN+SNml6ter1Bg0IueDteeQpV1jhSF0OA4DcLiv/9cCYPHLlDqwllpHDjui8+qtJX1n2OBpBW0AaPc8Pu/VEJlucOfvxqsekiq1OiK//rTZ1iyfg/MklKkyp39emQsfqhLNVAFzwgkCAtCY86SzZLufIuKX7eRFCgFV8Ii8cmXrZQ6GDTaDen5djXAjAO4GPD7vM7ihTdqiRKpraCRbbOjz5BZ+M3/fIJvanbD/OXbsGHnYazdegCbd3uhebvh+Ouz3+DTym1wxv+6xIgNnftOVuf89KtW8A8MU8XUY2f98a5A5m8CmEmz1sAkv5d0O9VGaUhwqvsjDQ3m/nxsnXd97QU5mtIoBofM64FRAg3Nyy6XdR0aqm4gxyU41IhOURl8qnXn7qv44N3R+OSjKfj2mwXo3mMnRo85hlFjvHHkWIwDGpLOqIKqwCarCAFBWRg9Mh6tf4xD186J6N0zEQMHJWLocBPGTDDC1z9LthMpqXpzxAVY6meT61Au18KpAoQDGkph0J3aCAf1e1BTxzzbmXbJ76NEaWgAfdygwcFdCSx40p2AoUNDcw0sutKYPHetkukTZq1S6oLAoHP+6Dl/1G7ST9bXkYA9oAZ3jZ2xUt3NG7YcjAtqnEYSGrUegpckqNdtO6T21d4/kY01Wz1QUYL3/c+aY5WoED6Lstx9D979pAlqNe6r0pMbApcaDfuobSbMXAX9js/h3jlFhTh8+gI+k2N8LvDaceA4AqNi0aL9SEl7qkvKsUalFSxychCXTWCwabenqJiOSp3sOnwSpy5cxQ+iiqhUlqzZCbP87FkFombk+MPGLRSF0kylNSExCQINjggtgYTz/OMDDXHtXReEhxZkxdAQZ+qhpR83ewkodOWhqRAdGjo49MfhCY4cUQInT0eietU5eP+9yeg/cDei47OQI8onQ4DCYijrHnrviwaOfKxYlYi2rSLRoW08OndMgNtCM3btS8HOfak4ejIdkQab6rKl80E79Vg+VY4DjJqqYvCLy1RTIpo7qw21TTE0HCBVbZo/1tCQYLjtMHKH88Es/fF2Pqty6uJ1rBQgnLoUoO7wutJg4IfEJ0rgnZa0wwMXgyLU8PKTFwPUwKu9ogA4sIvH3ON5VqDggcshkWrQmPakao5AIR3bPY6r+oJaJ8dl78iGHUew58hZJIl0jU9Jk/kzohY8cebSdZWa8LkXPgHLegR7QbbsO4Yte48KMGIk5ZC/nUOnsGbLAVwMDEVGvgS6evQ9R7bPVQ+o7ZZrpiq5HByJs/43sHGXp8DEC7FJFgUlBj89NE6OveeouJc6rmovAwpnf7ShYZcAzWRAaeBQkp7zTsFV/JYtWdYLhmXdWVk4t2ntGkA0xSHHFHBkWwFTci6mzzyKr76ahzXrL8myDVFxVvFcRMbmqu5XU2oBktMFJITMmVT07RGF1s3j0L5NPIYOixOJKP/IAoNEvnEsyYZok+YxZhvik/icSx5M6XI3IDyYHhEg/Bnlesq6rq40p6KQKddRXdC5jTh/DwSp9gRtgVJcj6PSKAuJ8pxqQ6UqAg/e0S25uQoYbNPfk6FPk625st6mIJCYoT3WniIpAvdhG7fhfIoEONdxmeAhILheK0Rqoy3ZG5Iix2LdIt3Ou71VjcbkEG7V9SlBqb1fQ4MGUxTCgL0b9FSZ15epLtLs7CbVBnDpzuHjGZLi8GE2jr9gUVUti7O4qtctVNeqrM/Kl7SY28q62wGD/khDg5V/BpR2Jy5xlao4lIHurE1or+S7e7dKcFkFFgSG3sZ5Ho/1FL+LBowYsR/LV/hi565AbN8ZJB6KHbsjsGlrGHwuJIsSYpqSj3nz49C8UYQAw4CO7WOxbXcSDAILjgfhS38SkrW3iPEBuSijDRF8v4dJ4CMwMRAeqXzCVtQHUyT+nHIderpSLkA4dbieshQvy8+VmZsvLtDIe8ygcZdKg66pDQ0anFJ1MNDLQkN3bZ0+X/pdGuW5emeGCn6HCxjUe0TFCQTCQD3eTjDIMuGh1zGK1zmmGgy0R92dvfRLdW52AkhNxVMd07LO9XcChbM/8tBgrwbfqMUHxji+QqttiEtgp0ubDg3WJHRwOEPgji7bllUo3F+DRwGCgpPg5RUKr6MR8DwWKR6NYyfisGlLGFasDEZwZCaOnUpB967haCkqo03LOEybHo+gSKG8gE0985ImaiONLwrS4BGXlIcokx0RxlyBhygXgUiMKJD4ZFEfAg+Vugg8+MYyrebh7KUBUm56Isu60uBAsseuEEogsGZxi7qG7s5FUQ0UupfA4VZeHiRKO1MTDSyEgpo6YKGmZcGgIEIVoqkMAkG9v9MBDLWtAxQ3uzMoCAkNFCXL2tQZEs7Q0BSHlpIQCPTyYKE7t3tkH41nTYLjIag2UtkNKoHEmoP+Hk92lypwKHhIuwMghAfX36vyKN95Hdobt3hHZ42F3a1pojB27Y7DypURGD0qCnVrhqN5kzh07hgD75PpEvDaS40JDA5X5ysKjTo8JK3hO05jkwmPPIGHAESUBwFCmMRZ8lTdw+wEj1RrgQBEXFIRPT2jp7FdPF3WMVVR6QqvlSCRdoKD3215HIzQYPVfTzvo5cOiBBh0XWnorge+BoebFUb50GCb/jYvzmsv8NGhobu+rL2KzxHgKj3RnPBQ6x1A0MGi3nyuAML9nKe3gkaJEwjatDQ0FCQc7brSUNBwzN/KS5QGh5g9HLt/0LBrxUaLeKpyCRi6QITAUIVRCWIFC5l3BkcJPDT1cc8KxOHcR6+b8FwWARRHjRIeoZE5cHePw6QJ0Zg00YjJk41w35iMiDjJhWU9gUFYmAR4Jgc4EumEh0zVi5EJDwu/7cLPMGjw4DTabBN42GWbfNlfUpesfDlmPlIJDoenK2AQIo6pggoBorVxW9Y3Hhdo8BsmmczdxTlV83JHpGfmyrLDMzh13kYCwHk5y063K8+0aa4v395L9nP27OJ5WZ+nHT/bniepYX65np0n+4jnOLzUcr7sl192qs/ry3Ic5fo6J89zclm2OjxXts+Vcyt3nr+F22QbvintYdn9S0/kDp+UWqTGTmjQcHia3GEd4NDgIZCQoNZhodTITQDRXIfHvQBEDa7i8cVVvUGOzyHj7PkwSGBHJeQiWoI9xmBTtQmqI6Nco3oBsgMURoKD9Q3HsrMb5GeKF/URI6lLdFI+ogQgEax7SPoSZc4VRWJDgiqaCjwyqT7yVddtCiFCSNAFDrrq0BUJVQfHbPDrby5z2S/Z7p/SkGDluzDU0O4y4CA01HdL6GqesCjPSwCit2n1j7tXH8UjMmV7OuHB+or6kpukIRaZqqdlBRSqfiHXzPqFrih0L05RnNqUC0w4TZB19DgLv+mSj0jCw8S0xSppi0ApmQ/M2eUYeZK6aAAhONJyxLPzRFnkqXmVyjic3a4uaLjsl273DRocZGUSpaE9vi7gkIBKkWkxNORur01v9tLgoOttJQrEufZxO/Wh6hkEBtUKgSHbqZqCTNXnFTgMXa6L7+sgFNQnFRyvFFTz5YDC5ORl1xlkezo/DhWtiqZMWayqtyXK0eMSL/Bgl605PU/gkScAs8u12CVtEhd4aJ4vSuPxSU9c9vjafYWGUYeGgICBybdnpUhApeqefi/gEBdVoBdQdVfwyNEUCZ8JISToxdCgynAARn/MnsVGgiNV1rG+od5PKoqBqYmJqYlcG7tatTeky1Tand0o4NPcsczUxaE4jHLtajs5Br8uF2vJkxTFLrCQVEiAwZSFHi0eJ6mLIdUu8LHL70jAkSWwKIaH5Ou5kpu6oOGyX7jdf2hI8KjH1mWawhpHsWsA0dSHgIIugad5CUx0OHCe3zOx2qGmHMTFAWTK8+B4vyeKUxFO9dSE9RW+B5TXxHV8fiRTvKQXg/CQaxEFY+GIUTl+Sg4EKuL8OTJQrDgs0kYnNMyybZJsmyTb0s0ybxJ46fBQAJH9jOrjUPwspQBEPNoZHkm5iBWPF4AY0wQemXa5BgLELoAjNBy/0AdgRUWFyM3NQXZWJnKy6VmOafluteYov6k9J0sdx26zIteaXWpdfp78o7jssbb7Bg0+kMYPGiULHCwOLxcapVzaHYXSsk5wGCUqg0JiBARAeGQiLl0OwuVrocqvXY9ASFicbJun6haZhEoB1LsNgsNiceqsn8ArV3XBKtUhikMNrJKp/E9tZ5dpBoGQYkNIjAnnLwfj6JlLiDBkwizn55fhvE7749KNGJgFbpHSHhaXgrB4zSMNGZKaSPBn5IsXgJ+kTBIVw+5XpjJUMAlp/JKcAITqgyNVzZK+EB6SxnDkqcGSK+omF+a0PKRnP9gu14KCfCQnJSIhLhIGQyyMxgQkJsbBEB8FQ1yJJ3A5PhoxIdeU68sJss5sjIfREIPgwGu4eOE8wkKua/s5jpGdle44m8seV7t/SkMCMtFcgKRkURkpOjjkTn5baGheUjAVV1OmF0CYgGLi5Ok46n0O3ifOY9Hi5Zg5ax5mzp6Hdu07Y/bcBUiSgKOiIDiOn/HF8dPnERwRg8HDRmDrjt0wmFOx1n0LTpzxQV6+gEL8xGkfzJJ9p86Yg0mTZ2DMuEkYPGIk+g4cglFjJyEgLEGpC6oG96370KPPIOw+4I0p090wfNR4jBwzEcNGjpNtJ+Pg0TNO0JCfn9DIlKn8DGZxk6RkRn2wmMAjPjlPYGEXtWFX03iqDvEEAQrrHfkPUGoQGpZkIxIFGDGBl3Hj4BaEnfdCYkJMKSdMYm7448rOVbi8YwWib1xSbRYBzhX/C9i+bQs89u/G4UMeOOp5EJHhwTAJfLhvdrbINPUSPpc9rnb/lIbczQ1GCZIkcQEHv4KmKw4FjjKgcHYdGrryYPpCaJiTc7Fg4QpMnzkP585fhtuCJWjQoAEaN2qC6tVrYeWq9er7JFkCDb6Yd/nK9ejWvRcsGTlYuHylgGMkDnt5o3X7DtiwZYf6U86XmNx/2AvDRo3GxKnT0LNXH3xe6QuMHj8Ru/d7wPvMBQlsDuwRaKTmw/OEL0YIJA57n8e2HYewZsNOuG/ZjfkLV6Jp85aYs2CZpCcCDFEmOjRKnMvaqFEztxHlQk8UeHDYeoKkLvEslIrHipskXbHzAh+QERopKWZRBJG4cWAzjo1oA78VUxEXdh1GR9DTTSYDIi+fh+/KaTi3cAwiLpxEksWMwOtXsW3LRmze5C4qwwehITdwSabRkaEuaPyK7L5BgwO24hPzRW1IXi/gMCdLwFg01aFSlnJgcStPFYWbLMF16XIo9h84ip27DmDJkjUYM3YC6tWvh5o1a2PIkBGYM2+hnDNdVIaWavhfDVbQ2LRlO2IMFpz1vSyKwg19+w9CSGQCcmSbbL6+T9QGUxTaWd+LaNKsOS5cCVDL/HPnOj5OHxmfioECnhNnL2HLTg8sWb4eC5asFgDtxpUb0Rg3cRoWLF0jKYqoCaZTDrXBD19rwHBAQ4FDdwKE40NkWzXiNE+Dh6QvHDdiz3+w6UmKBD/TiGDv/Tgzewj8BAzhfie0VEUUiFIaifGICb6KoBP7EXrWE/GRwbBYTNiy2R379u5SioPwSTInihskXdH2c0Hj12H3ERpF6vOJ/GSiIUmCSJyqg+AoVhwChLuBR5r83ZlEui9fuQEDBg1V0OjRvQ/q1K2P+g0bolbt2mq+UZNmCI0wQH1NTTwzNw8LlyyX9qYIizYgLjEFHTt3w+Jlq2CXv+NcgYHv5euYPmuOpBjjMHbCZHTp1gNVqlRBtx49BQJTpX28pB0TZP9EtX/NOnVw5NhpNG/ZCu06dsWkKbPQsFFTrN+wGyNGT8RCgQYVCQulqggqnuhIS25SHMplXgeIzJuljdtyuHqyACWv4MFCQ0tP4gQEoYgQWERcOIWIS2cQFeAHQ2ykwCMeRiqNKz6qzZRsgknakkwJWLlyOU6cPI7k+EgEeu4QoByBISa8lEpxQePxt/sGDQ7YiojPUx9ujjMVIF7cYBZwSKpiFnAkWSRYylUdBQooztBQ6YpMT5+9olTCwkUrMKD/YLRr1wEtW7VCo8ZN0K59J7Ru216gYUR6FtSby9mrEhqRgD4DBqKf7Ddk6Ej06NkXIRHxsBaIguDTsJdvYNqM2Rg+YrSqZRAaX1f5RqDRC+MmTcEogQZhEhFnUvWQBnKuw8dOonW79nDfvEt11fYdMBRr1m3HiFETBBprwcfpVdet/Byq+1achVDWNRQ0BAYl0OBAL8d8Vp4cL8+hPuRnzypE/kOABouaDHSTKAWz2YiE6DBJR84KKM4hPiIYsSEBKj1JiJa0Q7ZRQIgKwfplC+G5YyPCju7C2bnDcGH1TNn2mqZSXND41dh9gwY/chQcnSeSPh/RhgJJDwoQZyxAggMeVB7GJAkuSVsURIprHmWgodo4DoNqw4ZZc9ywdNkaDBTFMXrseAweMhxdJdAnTpom0OiAoLBE9VAaocHaBrOOPfsOoWLFinjn3XexaOkKCCvAl/KkWekCJY7IFOe3Wg96HUf9Ro3g6X1GqRGO0kzn5xRk+2hDkoKG1/HTaNq8uYCjg0pJ6tRriFXrtmHk6EmSnqxVYzy0z0ZqtQoj3VG/IDzYm8JRoQoeMi2Bhl0VPzlalKqDT8nmP+DeEx0aepDTmY4kSlvkVV8Eeu3E5W1LEXh0t4DjHMIvnBQlchpxojp2rF+Bkwf3INRrB/y3LEHQcQ8kRIUq5eKCxq/H7hs0+M7O4Eg7wqJsCIuxIzLWjigBSIxB1Eei5O3GfAFIngAkH4kCD7opWXJ7hwLRVIgDIKkcqwEEhxrQpWsPjJe0Yez4ydi0ZS/WuW/D8OGj0a/fYHTo1EWOl4NUSU2ybEBMQgpWrHHHj63borsoh36iOFq0bK3Sk4hYI+TGjnR2wcqUUOCIgiMChPqNGuPYKR8FHG6j3AENAuXEWR8sXr4SQ0eOxtARIzF5+iycv3hDrmkq5i9erQqbVBkEhsGSVwwPTlXqImqKXbbq+y1UH0xdVHoiAMmStEQ8SU7I51B+DmjQjZJ+xIUH4vKWxTg1rR8C9rmrHhSmKNEyNcWEYd3aVTh2xAOGYH/VZkiIdnTB3rmmUZSXK/sewMKFC7Ft5z65gaSp9sy0FJzw9kZoVJxa/ikWFhSAk6fOSHordxGXPTC7b9DgWIhogURETK6kA1aERmoeHmNFZFwuohPsiBWAxLHuYcyT9EVAQoCIG1WPC1MZTYWkyN9dnCETEyZNR7MWLVG/QRN0694bbguXYeHiVRgzdhJ69R6Azl2747DXGSSl2rF1h4fqhm3fsQumz1mAqzci5dxGLF2+VrbroVKZPR6eChj8vEKauFX+tg94HkfN2nVwxPsUZBX47RYOACM4IhNMqFajJk6e94M5M0tSrxRxCwIjorFg8XJV21gsx+czLGqIuQ4KAUcxNBzOoqd69J7QUGmLpi6YviRLWpLEzzT8nNAQtUHVEHh0D/w3LUTwyQOqxmGS9IV1Du53wGMf3CaPxuXzJ5GZkapqHTeuX0FsTMRte08yLAb07doOr736Cj744AO8+vLLqNOoJa4ExSDkmh/+9VlFzF622bH1v2/zJwxD5W9rwf96mKPFZQ/C7hs0+MJfg6lQgJCPqDhRG5E56puowRHZchfJQXh0rtztbQIWUR4J4gQI1YcAxGCSOzMLqAogVB5FiI3PwtbtB3Hs+AW4b9wtoJgqymEo+vQdjL79hqBv/6EYMHgE1rrvVE+x7jtwHDNmL8JZvwD1Xgt+REnUP/jpxktXQrBw6Up4Hj+rRoaq4eTiVBMsjE6aOhMXA4JVoVS9KEeAwn0NyemYPc8NN8Ki1VuocyQWOI0TeIwcPU75hatBsMgKBr7eI8LUhIVNI1WGuA4OlbowZdHhoeodAg3C42eFRqyqccQE+iPi4mnVW6LVOHyKtzGJEgnxPwev3Zux0X0tNqxfC/f1a7Bj+xbVBRsSeE2pjrLQKMjPg9vEgfjjH/6IYRNmwVtUxZL50/B/v/8d2nYfhkvnT+DJ//tfDJ28WG2fZjHhyCEPeBw8LH8nJtVmNhkQEhoOqy0fBaJYIsJDYUjU1lmz0nD6+FH4BwSiX/tmeOaFt3D6wnW1Lio8CB779+NqoAsi99PuIzSKJPipFgphNBfIP7hdVAfVBsGRU6I8om0qdYmMt0k6YVfpC0HDXhcWT1kD4SAxHiMpRf6IJE1JTgUCAg045xuM0+du4PTZ6zhzPhC+F8IQFJoEfv/ELKkOH83nyFCL/N2ysMjA5DDxHFENfMmwRSiRIoFpyS5Q01RRFCahSqQhWYLXhnS7KBAONRdo8DV96VaBWlK6ekZEb6OnZOchKCJOpS/pAheqllSrnEs9EKeBgD0ipjQqDA0cdEMqUxctfeEyAcPr1AqlfKcGaxqOX+gDsHKhIakFi52xoQEI9zmOhMgQTV3ERSHq0ik1CMwo6xNETUTKcmJkEM6dO4O9e3bi+DFPXLtyEUsWLcCliz5INhtugkaGJREfVXgB739eVYBd0u55YC+8T57BJZ8TeO6pf2DS3NW4LlCq8f03qNegMRo3rIsadZvitO9FbFo1D3UatEJIbBpSE8LQtnkjzF20BjnpyRjeryvee/9D1G3QEG+/+gJeqFARlwPDcXj3RvzwbRV89+23+PKrr7Fi417Y8h7ei2oeZ7tv0OCr+LRuVrqAQ5wQUfAQUIRF5iJU4BEiCiQsKhdhApTwWLlrxNkldcmXdETcWKAAwtoHPVGOZTDnKRBZJAVOlb9HVfQUT6PLMtuNeg+NQMZkkfPLvP7qPgalenhOPWdC5+Pxmqu3iwtkqCo45YuFCQ0FDgc8hC8CCk2B6C8JplqRWTVsnfN8QTCHp6uX6wg41AesBQJ8H6k2oIuA4Bu+7AILviZQg4dRpnx0Xr31XCCTIuB9kH/XZaFBdcGUhOM0Qs56Ijb4mlIUTDUiI8Nw5uhB+B/dB0NUiOpNibxyXvaLhtEQp+oYHK+RlmLCelEcly/5qm7ZstAwxgTj6b8/ido/9ix3tOsVAdWz//gHxs1chhuXzmL4iFE4cuwUpo4ZiN/99r8xff5SzJ04AH9/9i1cCkmCOfwK3n/1eQweNRUeW9fiqb/9DX2HTcCRw4dR7atP8fSrH+Pg/j2o9e3nqNW4Dbbt3I3mtaugwnv/QnBkvOOsLvspdt+gkSvBxIFcHJdhliBWI0MVPCTwJf1gShIRLWpDwBEWTuUhHiXLKm3JQ3RcnigPSVkcaUucpC1xDngQHAazHQniKo2RYxIoWo9MIRKpbnguR13EKNegPIUpAoOX8OBdXXssnuMh6Exril2CXIFEwMHUhQ+1KYA45vWH3XTPkLbib5s41vNTBdobumQfOU4K4ZTOt4fx3BzQxfdrEBqaExiJsswnX/nWr2RRKQ9jnAahwcDnGIvAIztwdt5IXNu/waE84pSCmDplMqZOnwr3edNwbu08BB3ZrtQIC6YEBsFCaPicP4M1a1bhRsCVctOTFGM0Xnv2KfyrWtPiny1fUozdW1Zj9Vp3+J7xFqXxFMbPXo7QAD+0b/MjOnTqjuaN6uGvf/k7ps5ZiEUzhuOlNz7BlQgLkqMDUOn9NzFu8ixMHjkQTz33Os5dDlHHnTS4G15/+zPMmzYB7735Ct775Au0adMOX38hMHn2RZy/HKi2c9lPs/sKDdVlyru63OWTCQ8JalOS3EUlqDlKlD0o0bE2hIvqCAkT1UEPt4r6sGrqQwASKQokKt6qCqfRBi19iTPa1XdZ6XF8L6e4KqQqF2UiIKFrcGFKwZcCC1h4XgEZXQFEuaZCzCxMMoVgeiBTfguFrmAiwas+U5Ct1T5KQcThfD8H2/TH7nV1or5lK78LBRduQ/XCtEUAwhSErwM0ynmM6VQaTFm0tIWjQqmKHhY0VDepTIOO7sHpWUMQINBISTbB1+cMBvTvixbNm2PBooXYMH8a9o3tjhs7Vwg0rqsxGQSG2RiHo56HsGzpIpw/K2kLlYvApCw08nKz0bt1Xfzl789gq8dJ1Rbgdxyvv/A0GrfqLunJSbz47HMYPGYapo/qgwrvfIhDJ09hqcDqb3/6C6bNW4JFM0eK0qiAi8FGxAScEwg9ifFT52HZ7Mn421//gR0HT6nj9mrfGM+++hHWLluAj995Hc3a98Gx46fgvmYpho0Yg+h4o9rOZT/N7hs0CkRW2+xFsItzapPAyZU7r1WCh4+q654jQZQpaUG6BE+xZzpcAisjK0/W5yErO1+8UHPZJyunAFlyF1ffdZWpNl8gaVFhua4+PC3nvvlDTLrLtcl18tF7NeWyeK6dg8Tk+nXP1z45qbtdgtomP6udP69jenuX3wn34f5yPB5bd/UhKLkW9d1ax/U8yJdK31TTkCCPl/Qk6pof4gQITC88jxzAlMkTMX/ebBw9egQeOzZjXM/22COBlxATKbBIQHhoIJYvW4wtmzfgir+fgs/tek/Cb/jh+399iKeefgFffvkVXn/lBTz38lvwPn8NV32P4x9//SsGjZ6GOeP64/d//At69R+EJnWr4jf/778wcdZSHNq5Dn/43X/g48++Qp0a3+GJJ57AiHEzkRAZhK8rvo8XX6mAuvUa4vmn/oK/v/wBzvlcxNiBXfDOex+gxY8t8V2Vyhg+YR4y+GSjy36y3TdouOyXb+UVQvWRoXxIje0HPfZi/97diIkKU4/C84nWUSOHY9NGd4SFBiEtxYw1q1eonpPIiBBV/LybcRoRwdexfPF89OvXF5OmzYLvxWuqPVXUzc4dOxAQFA5TQjRWLF2onmTeuXOn8qvXQ5CVkYpNa5Zj+MiRcN+4Ce7uG3Dez1/tf83fBxPGjcHk6XMEYpuwY4+HpIRZSJHrWr96CYYOGYzZ8xfjRkiU6wVH98lc0PgVWXnQcHaLBJrH/j3qobTMdIsCAp9iPXHiKM6eOYFQCfyMtGTMnDkNR70Oqfmyx7gVNHSz5uTcIXhFldlE/pVj1twSpcC3neuWl2dH3i26nXLkfC5U3F9zQeNXZHeERpIB58+dUt2pfEcGC5tsj5YU5vTp42ogF0ExfdoUHDqwT6mOsse4EzRc9uibCxq/IrsTNJhm0Hfv2o4D+/dK6mB0FD3jJT1ZD+9jXrBmp2Hq1EkqjXFB49dpLmj8iuxO0KCnyPrTJ72xaZM7ggMDFDBSLSasXbNKjdS0WTMwY7pDaUh72f1d0Hj8zQWNX5HdDTT0ouY+SVG8jhxSEOF4DM/DB3DAYw9io8OxZPFCnDjmqdaV3d8FjcffXND4FVkJNKJuCnbdCRTCwFugwHEYVBoECfdZtmyx6o3YuGE9wkJuFNc8nN0FjcffXND4FZkGDROMfEDNUb8ozwmDiPBghIcGFbexJyUo8BqOHfVUU27DeofzfnR+xsBlj7e5oPErs8LCAgWPO3lhAbcrvS27OQsLC9UxtPWl99G2eYCj01z2izAXNFzmMpfdk7mg4TKXueyezAUNl7nMZfdgwP8HlekCTwo/YaUAAAAASUVORK5CYII=;" vertex="1" parent="1pD8eMZOPtD5a8AL9G_5-8">
          <mxGeometry y="50" width="160" height="70" as="geometry" />
        </mxCell>
        <mxCell id="1pD8eMZOPtD5a8AL9G_5-14" value="非公开数据" style="rounded=1;whiteSpace=wrap;html=1;sketch=1;hachureGap=4;jiggle=2;curveFitting=1;fontFamily=Architects Daughter;fontSource=https%3A%2F%2Ffonts.googleapis.com%2Fcss%3Ffamily%3DArchitects%2BDaughter;fontSize=20;" vertex="1" parent="1">
          <mxGeometry x="750" y="280" width="120" height="60" as="geometry" />
        </mxCell>
        <mxCell id="1pD8eMZOPtD5a8AL9G_5-16" style="edgeStyle=orthogonalEdgeStyle;rounded=0;sketch=1;hachureGap=4;jiggle=2;curveFitting=1;orthogonalLoop=1;jettySize=auto;html=1;exitX=0.75;exitY=0;exitDx=0;exitDy=0;fontFamily=Architects Daughter;fontSource=https%3A%2F%2Ffonts.googleapis.com%2Fcss%3Ffamily%3DArchitects%2BDaughter;fontSize=16;" edge="1" parent="1" source="1pD8eMZOPtD5a8AL9G_5-15">
          <mxGeometry relative="1" as="geometry">
            <mxPoint x="830.1428571428573" y="370" as="targetPoint" />
          </mxGeometry>
        </mxCell>
        <mxCell id="1pD8eMZOPtD5a8AL9G_5-15" value="保密数据" style="rounded=1;whiteSpace=wrap;html=1;sketch=1;hachureGap=4;jiggle=2;curveFitting=1;fontFamily=Architects Daughter;fontSource=https%3A%2F%2Ffonts.googleapis.com%2Fcss%3Ffamily%3DArchitects%2BDaughter;fontSize=20;" vertex="1" parent="1">
          <mxGeometry x="750" y="370" width="120" height="60" as="geometry" />
        </mxCell>
        <mxCell id="1pD8eMZOPtD5a8AL9G_5-18" value="知识库" style="rounded=1;whiteSpace=wrap;html=1;sketch=1;hachureGap=4;jiggle=2;curveFitting=1;fontFamily=Architects Daughter;fontSource=https%3A%2F%2Ffonts.googleapis.com%2Fcss%3Ffamily%3DArchitects%2BDaughter;fontSize=20;" vertex="1" parent="1">
          <mxGeometry x="480" y="330" width="120" height="60" as="geometry" />
        </mxCell>
        <mxCell id="1pD8eMZOPtD5a8AL9G_5-23" style="edgeStyle=orthogonalEdgeStyle;rounded=0;sketch=1;hachureGap=4;jiggle=2;curveFitting=1;orthogonalLoop=1;jettySize=auto;html=1;exitX=1;exitY=1;exitDx=0;exitDy=0;fontFamily=Architects Daughter;fontSource=https%3A%2F%2Ffonts.googleapis.com%2Fcss%3Ffamily%3DArchitects%2BDaughter;fontSize=16;" edge="1" parent="1" source="1pD8eMZOPtD5a8AL9G_5-20">
          <mxGeometry relative="1" as="geometry">
            <mxPoint x="880.1428571428573" y="420" as="targetPoint" />
          </mxGeometry>
        </mxCell>
        <mxCell id="1pD8eMZOPtD5a8AL9G_5-20" value="离线知识" style="swimlane;childLayout=stackLayout;horizontal=1;startSize=50;horizontalStack=0;rounded=1;fontSize=14;fontStyle=0;strokeWidth=2;resizeParent=0;resizeLast=1;shadow=0;dashed=0;align=center;arcSize=4;whiteSpace=wrap;html=1;sketch=1;hachureGap=4;jiggle=2;curveFitting=1;fontFamily=Architects Daughter;fontSource=https%3A%2F%2Ffonts.googleapis.com%2Fcss%3Ffamily%3DArchitects%2BDaughter;" vertex="1" parent="1">
          <mxGeometry x="740" y="130" width="140" height="305" as="geometry" />
        </mxCell>
        <mxCell id="1pD8eMZOPtD5a8AL9G_5-24" value="在线知识" style="swimlane;childLayout=stackLayout;horizontal=1;startSize=50;horizontalStack=0;rounded=1;fontSize=14;fontStyle=0;strokeWidth=2;resizeParent=0;resizeLast=1;shadow=0;dashed=0;align=center;arcSize=4;whiteSpace=wrap;html=1;sketch=1;hachureGap=4;jiggle=2;curveFitting=1;fontFamily=Architects Daughter;fontSource=https%3A%2F%2Ffonts.googleapis.com%2Fcss%3Ffamily%3DArchitects%2BDaughter;" vertex="1" parent="1">
          <mxGeometry x="740" y="470" width="160" height="120" as="geometry" />
        </mxCell>
        <mxCell id="1pD8eMZOPtD5a8AL9G_5-26" value="用户上传知识" style="rounded=1;whiteSpace=wrap;html=1;sketch=1;hachureGap=4;jiggle=2;curveFitting=1;fontFamily=Architects Daughter;fontSource=https%3A%2F%2Ffonts.googleapis.com%2Fcss%3Ffamily%3DArchitects%2BDaughter;fontSize=20;" vertex="1" parent="1pD8eMZOPtD5a8AL9G_5-24">
          <mxGeometry y="50" width="160" height="70" as="geometry" />
        </mxCell>
        <mxCell id="1pD8eMZOPtD5a8AL9G_5-29" value="" style="endArrow=classic;html=1;rounded=0;sketch=1;hachureGap=4;jiggle=2;curveFitting=1;fontFamily=Architects Daughter;fontSource=https%3A%2F%2Ffonts.googleapis.com%2Fcss%3Ffamily%3DArchitects%2BDaughter;fontSize=16;" edge="1" parent="1">
          <mxGeometry width="50" height="50" relative="1" as="geometry">
            <mxPoint x="720" y="460" as="sourcePoint" />
            <mxPoint x="630" y="370" as="targetPoint" />
          </mxGeometry>
        </mxCell>
        <mxCell id="1pD8eMZOPtD5a8AL9G_5-30" value="实体连接&lt;br&gt;文档召回" style="rounded=0;whiteSpace=wrap;html=1;sketch=1;hachureGap=4;jiggle=2;curveFitting=1;fontFamily=Architects Daughter;fontSource=https%3A%2F%2Ffonts.googleapis.com%2Fcss%3Ffamily%3DArchitects%2BDaughter;fontSize=20;" vertex="1" parent="1">
          <mxGeometry x="310" y="260" width="120" height="60" as="geometry" />
        </mxCell>
        <mxCell id="1pD8eMZOPtD5a8AL9G_5-31" value="prompt" style="rounded=0;whiteSpace=wrap;html=1;sketch=1;hachureGap=4;jiggle=2;curveFitting=1;fontFamily=Architects Daughter;fontSource=https%3A%2F%2Ffonts.googleapis.com%2Fcss%3Ffamily%3DArchitects%2BDaughter;fontSize=20;" vertex="1" parent="1">
          <mxGeometry x="310" y="350" width="120" height="60" as="geometry" />
        </mxCell>
        <mxCell id="1pD8eMZOPtD5a8AL9G_5-33" value="" style="shape=flexArrow;endArrow=classic;html=1;rounded=0;sketch=1;hachureGap=4;jiggle=2;curveFitting=1;fontFamily=Architects Daughter;fontSource=https%3A%2F%2Ffonts.googleapis.com%2Fcss%3Ffamily%3DArchitects%2BDaughter;fontSize=16;" edge="1" parent="1">
          <mxGeometry width="50" height="50" relative="1" as="geometry">
            <mxPoint x="379.28999999999996" y="620" as="sourcePoint" />
            <mxPoint x="379.28999999999996" y="682" as="targetPoint" />
          </mxGeometry>
        </mxCell>
      </root>
    </mxGraphModel>
  </diagram>
</mxfile>
